<?xml version="1.0" encoding="utf-8"?>
<!-- Generator: Adobe Illustrator 22.1.0, SVG Export Plug-In . SVG Version: 6.00 Build 0)  -->
<svg version="1.1" id="Layer_1" xmlns="http://www.w3.org/2000/svg" xmlns:xlink="http://www.w3.org/1999/xlink" x="0px" y="0px"
	 viewBox="0 0 1024 1024" style="enable-background:new 0 0 1024 1024;" xml:space="preserve">
<style type="text/css">
	.st0{fill:#333333;stroke:#000000;stroke-width:4;stroke-miterlimit:10;}
</style>
<g>
	<path class="st0" d="M840.1,225.8c-43.1-16.4-83.7-13.6-123.7-4.1c2.4-2.5,5-4.7,7.3-7.5C767.7,160.4,783,79.8,761,14.1
		c-0.4-1.2-1.1-2-1.7-3c-0.5-6.2-4.6-11.7-12.7-11c-104,8.4-194.3,83.2-224.2,179.6C499,109.8,447,44.8,392,4c-4.1-3-8-3-11.3-1.4
		c-0.4,0.2-0.8,0.4-1.1,0.6c-0.8,0.5-1.5,1-2.2,1.7c-0.5,0.5-1.1,0.6-1.6,1.2c-21,23.5-31.9,58.6-39.8,88.3
		c-1.3,4.9,0.2,8.9,2.8,11.8c1.5,2,3.5,3.8,6.6,4.7c74.7,22.8,130.3,81.5,151.2,155.8c-83-13.8-153.7-66.2-243.5-55.1
		c-86.6,10.8-154,70.6-190,148.3c-92.8,200.6,14.2,441.2,145.1,599.1c68.6,82.7,132.3,73.7,226.2,42.5
		c68.1-22.6,114.2-9.5,180.4,7.1c36.7,9.2,77.9,18.8,116,12.8c91.2-14.4,150-125.2,182.8-200.9c48.3-111.5,85.6-226,82.1-348.9
		C992.5,369.8,940.1,263.8,840.1,225.8z M736.8,28.2c16.8,58.8,2.4,132.6-40.9,176.9c-40,40.8-101.6,54.6-157.1,62.6
		c0.2-1.1,0.6-2.2,0.5-3.5C530.8,149,622.3,42.8,736.8,28.2z M365.1,89.8c5.2-18.8,12.2-38.9,22.9-55.1
		c50.5,41,97.3,106.2,113.9,172.6C472.8,153.1,424.3,111.3,365.1,89.8z M790.9,959.2c-89.4,83.5-188.9-5.3-289-1.1
		c-47.9,2-90,27-135.6,38.4c-81.6,20.3-129.7-38.6-170.3-100.2c-68.6-104-132-216.6-140.1-343.5C47.7,425.7,103.1,266.3,244,240.2
		c100.9-18.7,178.2,48.8,274.2,56c1.6,0.6,3.5,0.8,5.8,0.5c27.5-0.4,54.5-6.6,81.2-14.8c12.8-3.3,25.3-7.6,37.5-12.3
		c56.8-19.6,113.2-40,172.4-23.9c160.6,43.9,170.2,243.7,139.8,377.1C928.7,737.3,878.4,877.5,790.9,959.2z"/>
	<path class="st0" d="M274,319.1c-90.8,37.4-136.6,151.8-121.3,244c2.8,17,28.7,9.8,25.9-7.1C166,479.9,205.1,376.3,281.2,345
		C296.9,338.5,290,312.5,274,319.1z"/>
	<path class="st0" d="M170.5,618.7c-17.3,0-17.3,26.9,0,26.9C187.8,645.5,187.9,618.7,170.5,618.7z"/>
</g>
</svg>
