<?xml version="1.0" encoding="utf-8"?>
<!-- Generator: Adobe Illustrator 17.0.0, SVG Export Plug-In . SVG Version: 6.00 Build 0)  -->
<!DOCTYPE svg PUBLIC "-//W3C//DTD SVG 1.1//EN" "http://www.w3.org/Graphics/SVG/1.1/DTD/svg11.dtd">
<svg version="1.1" id="Layer_1" xmlns="http://www.w3.org/2000/svg" xmlns:xlink="http://www.w3.org/1999/xlink" x="0px" y="0px"
	 width="1025px" height="1024px" viewBox="0 0 1025 1024" enable-background="new 0 0 1025 1024" xml:space="preserve">
<g><path d="M532.48 323.584c15.36-26.624 39.936-64.512 71.68-100.352 26.624-30.72 78.848-69.632 78.848-69.632 8.192-6.144 7.168-14.336-2.048-18.432l-62.464-29.696c-9.216-4.096-21.504-1.024-27.648 7.168 0 0-46.080 66.56-101.376 209.92-169.984-76.8-330.752 30.72-330.752 217.088 0 195.584 149.504 492.544 353.28 403.456 214.016 92.16 354.304-207.872 354.304-403.456 0-188.416-145.408-299.008-333.824-216.064zM493.568 260.096c10.24-1.024 19.456-9.216 19.456-19.456 0 0 6.144-75.776-46.080-129.024-54.272-54.272-130.048-47.104-130.048-47.104-10.24 1.024-18.432 9.216-19.456 19.456 0 0-6.144 75.776 47.104 129.024s129.024 47.104 129.024 47.104z"></path></g>
</svg>
