<?xml version="1.0" encoding="utf-8"?>
<!-- Generator: Adobe Illustrator 17.0.0, SVG Export Plug-In . SVG Version: 6.00 Build 0)  -->
<!DOCTYPE svg PUBLIC "-//W3C//DTD SVG 1.1//EN" "http://www.w3.org/Graphics/SVG/1.1/DTD/svg11.dtd">
<svg version="1.1" id="Layer_1" xmlns="http://www.w3.org/2000/svg" xmlns:xlink="http://www.w3.org/1999/xlink" x="0px" y="0px"
	 width="1025px" height="1024px" viewBox="0 0 1025 1024" enable-background="new 0 0 1025 1024" xml:space="preserve">
<g><path d="M872.448 429.056c-20.48-34.816-55.296-50.176-93.184-55.296-20.48-4.096-40.96-4.096-61.44-5.12 58.368-18.432 107.52-1.024 153.6 35.84 1.024-3.072 2.048-5.12 3.072-7.168 24.576-53.248 8.192-103.424-30.72-143.36-12.288-12.288-20.48-23.552-21.504-41.984-3.072-31.744-15.36-60.416-38.912-82.944-32.768-29.696-72.704-37.888-115.712-34.816-2.048 1.024-4.096 1.024-6.144 2.048 23.552 33.792 39.936 68.608 29.696 109.568-6.144-53.248-22.528-100.352-74.752-125.952s-100.352-21.504-143.36 19.456c-71.68-34.816-139.264-21.504-164.864 31.744 51.2 34.816 67.584 56.32 61.44 76.8-7.168-11.264-14.336-25.6-24.576-36.864-29.696-31.744-73.728-43.008-111.616-12.288-15.36 12.288-27.648 28.672-38.912 45.056-19.456 27.648-25.6 60.416-18.432 92.16-38.912 37.888-58.368 94.208-45.056 149.504 14.336 59.392 51.2 98.304 108.544 117.76 5.12 2.048 10.24 2.048 10.24 11.264-5.12 62.464-14.336 123.904-47.104 179.2-18.432 32.768-40.96 62.464-62.464 93.184-11.264 16.384-10.24 30.72 5.12 39.936 39.936 23.552 79.872 47.104 120.832 69.632 14.336 8.192 27.648 3.072 34.816-12.288 3.072-5.12 6.144-10.24 8.192-16.384 22.528-58.368 58.368-105.472 102.4-145.408 41.984-38.912 83.968-61.44 86.016-59.392 1.024 2.048 2.048 3.072 3.072 4.096 36.864 39.936 80.896 58.368 135.168 54.272 32.768-3.072 64.512-17.408 89.088-38.912 34.816 2.048 70.656-14.336 96.256-40.96 25.6-27.648 32.768-60.416 28.672-96.256 0-6.144 0-10.24 5.12-14.336 16.384-13.312 29.696-28.672 36.864-48.128 14.336-41.984 1.024-78.848-19.456-113.664zM293.888 617.472l-12.288 7.168s-16.384-81.92 0-79.872c17.408 1.024 18.432 3.072 17.408 17.408s6.144 47.104-5.12 55.296zM346.112 680.96c-17.408 25.6-25.6 18.432-18.432-16.384 6.144-33.792 20.48-54.272 30.72-45.056s4.096 36.864-12.288 61.44zM466.944 684.032c-17.408 13.312-33.792 25.6-51.2 37.888-28.672 21.504-36.864 17.408-19.456-8.192 10.24-15.36 20.48-30.72 31.744-46.080 2.048-3.072 6.144-5.12 9.216-5.12 9.216 1.024 17.408 3.072 26.624 6.144 3.072 1.024 6.144 5.12 7.168 8.192 1.024 1.024-2.048 5.12-4.096 7.168z"></path></g>
</svg>
