<?xml version="1.0" encoding="utf-8"?>
<!-- Generator: Adobe Illustrator 17.0.0, SVG Export Plug-In . SVG Version: 6.00 Build 0)  -->
<!DOCTYPE svg PUBLIC "-//W3C//DTD SVG 1.1//EN" "http://www.w3.org/Graphics/SVG/1.1/DTD/svg11.dtd">
<svg version="1.1" id="Layer_1" xmlns="http://www.w3.org/2000/svg" xmlns:xlink="http://www.w3.org/1999/xlink" x="0px" y="0px"
	 width="1025px" height="1024px" viewBox="0 0 1025 1024" enable-background="new 0 0 1025 1024" xml:space="preserve">
<g><path d="M756.736 156.672c0-13.312 0-25.6 0-37.888-1.024-23.552-15.36-44.032-38.912-52.224-23.552-7.168-49.152 1.024-63.488 19.456-8.192 11.264-12.288 23.552-12.288 36.864v33.792c0 5.12-4.096 9.216-9.216 9.216h-60.416c-5.12 0-10.24-4.096-10.24-9.216 0-11.264 1.024-22.528 0-33.792 0-26.624-13.312-47.104-35.84-55.296-37.888-13.312-76.8 12.288-77.824 51.2 0 12.288 0 24.576 0 37.888 0 5.12-4.096 9.216-10.24 9.216h-61.44c-5.12 0-10.24-4.096-10.24-9.216 1.024-16.384 2.048-31.744 0-46.080-2.048-21.504-16.384-36.864-36.864-44.032-20.48-6.144-39.936-2.048-56.32 11.264-15.36 12.288-19.456 28.672-19.456 47.104 0 11.264 0 21.504 0 31.744 0 6.144-4.096 10.24-10.24 10.24h-167.936c-6.144 0-10.24 4.096-10.24 9.216v774.144c0 5.12 5.12 9.216 10.24 9.216h872.448c5.12 0 10.24-4.096 10.24-9.216v-774.144c0-5.12-5.12-9.216-10.24-9.216h-182.272c-5.12 0-9.216-4.096-9.216-10.24zM333.824 921.6h-219.136c-6.144 0-10.24-4.096-10.24-9.216v-153.6c0-5.12 5.12-9.216 10.24-9.216h219.136c5.12 0 9.216 4.096 9.216 9.216v153.6c0 5.12-4.096 9.216-9.216 9.216zM333.824 709.632h-219.136c-6.144 0-10.24-4.096-10.24-9.216v-161.792c0-5.12 5.12-9.216 10.24-9.216h219.136c5.12 0 9.216 4.096 9.216 9.216v161.792c0 5.12-4.096 9.216-9.216 9.216zM333.824 489.472h-219.136c-6.144 0-10.24-4.096-10.24-9.216v-155.648c0-5.12 5.12-9.216 10.24-9.216h219.136c5.12 0 9.216 4.096 9.216 9.216v155.648c0 5.12-4.096 9.216-9.216 9.216zM625.664 921.6h-232.448c-5.12 0-9.216-4.096-9.216-9.216v-152.576c0-5.12 4.096-10.24 9.216-10.24h232.448c5.12 0 9.216 5.12 9.216 10.24v152.576c0 5.12-4.096 9.216-9.216 9.216zM635.904 704.512c-1.024 3.072-5.12 6.144-10.24 6.144h-232.448c-5.12 0-9.216-5.12-9.216-10.24v-161.792c0-5.12 2.048-9.216 5.12-10.24h6.144c75.776 0 152.576 0 228.352 0 9.216 0 12.288 2.048 12.288 11.264 0 53.248 0 106.496 0 159.744 0 2.048 0 4.096 0 5.12zM635.904 484.352c0 3.072-4.096 5.12-10.24 5.12h-232.448c-5.12 0-9.216-4.096-9.216-9.216v-155.648c0-5.12 2.048-10.24 5.12-10.24h6.144c75.776 0 152.576 0 228.352 0 9.216 0 12.288 2.048 12.288 12.288 0 50.176 0 101.376 0 152.576v5.12zM685.056 529.408h224.256c5.12 0 9.216 4.096 9.216 9.216v161.792c0 5.12-4.096 10.24-9.216 10.24h-224.256c-6.144 0-10.24-5.12-10.24-10.24v-161.792c0-5.12 4.096-9.216 10.24-9.216zM909.312 921.6h-224.256c-6.144 0-10.24-4.096-10.24-9.216v-152.576c0-6.144 4.096-10.24 10.24-10.24h224.256c5.12 0 9.216 4.096 9.216 10.24v152.576c1.024 5.12-4.096 9.216-9.216 9.216zM909.312 489.472h-224.256c-6.144 0-10.24-4.096-10.24-9.216v-155.648c0-5.12 4.096-9.216 10.24-9.216h224.256c5.12 0 9.216 4.096 9.216 9.216v155.648c1.024 5.12-4.096 9.216-9.216 9.216z"></path></g>
</svg>
