<?xml version="1.0" encoding="utf-8"?>
<!-- Generator: Adobe Illustrator 17.0.0, SVG Export Plug-In . SVG Version: 6.00 Build 0)  -->
<!DOCTYPE svg PUBLIC "-//W3C//DTD SVG 1.1//EN" "http://www.w3.org/Graphics/SVG/1.1/DTD/svg11.dtd">
<svg version="1.1" id="Layer_1" xmlns="http://www.w3.org/2000/svg" xmlns:xlink="http://www.w3.org/1999/xlink" x="0px" y="0px"
	 width="1025px" height="1024px" viewBox="0 0 1025 1024" enable-background="new 0 0 1025 1024" xml:space="preserve">
<g><path d="M512 63.488c-244.736 0-442.368 197.632-447.488 438.272-5.12 250.88 193.536 454.656 440.32 458.752 257.024 3.072 450.56-202.752 454.656-439.296 5.12-251.904-198.656-457.728-447.488-457.728zM515.072 870.4c-200.704 1.024-361.472-159.744-361.472-358.4 0-197.632 160.768-358.4 358.4-358.4s357.376 160.768 358.4 358.4c1.024 190.464-153.6 356.352-355.328 358.4zM542.72 243.712h-60.416c-4.096 0-7.168 3.072-7.168 7.168v215.040c0 4.096-4.096 7.168-8.192 7.168h-137.216c-4.096 0-7.168 3.072-7.168 7.168v61.44c0 4.096 3.072 7.168 7.168 7.168h212.992c4.096 0 7.168-3.072 7.168-7.168v-290.816c0-4.096-3.072-7.168-7.168-7.168z"></path></g>
</svg>
