<?xml version="1.0" encoding="utf-8"?>
<!-- Generator: Adobe Illustrator 22.1.0, SVG Export Plug-In . SVG Version: 6.00 Build 0)  -->
<svg version="1.1" id="Layer_1" xmlns="http://www.w3.org/2000/svg" xmlns:xlink="http://www.w3.org/1999/xlink" x="0px" y="0px"
	 viewBox="0 0 1024 1024" style="enable-background:new 0 0 1024 1024;" xml:space="preserve">
<style type="text/css">
	.st0{fill:#333333;stroke:#000000;stroke-width:4;stroke-miterlimit:10;}
</style>
<g>
	<path class="st0" d="M936.1,535.6c-11.2-91.5-45.5-174.6-103.8-242.9c9.9-12.6,21.8-23.9,33.1-35.4c5.3,4.5,11.9,11.5,18.3,13.5
		c13.7,4.3,22.8-8,30.7-17.9c8.9-11.1,19.7-24.9,13.5-39.4c-7.2-16.9-31.1-31.3-44.7-42.6c-15.7-12.1-34.1-32-52.8-38.3
		c-17.3-5.8-29.3,6-39.3,18.6c-7.9,9.9-17.4,18.1-11.8,31c2.7,6.2,7.3,11.8,12.6,17.2c-9.2,9.9-18.4,19.9-27.3,30.1
		c-48.3-33.7-106.8-54.2-165.8-64.1c-0.8-9.9-1.3-19.6-1.4-29.5c8.4,0,16.5-0.5,22.8-2.8c19.2-7,19.4-15.9,20.6-37.4
		c1.3-24.3,4.8-65.5-17.2-81.7c-25.7-19-84.8-9.2-114.1-9.3c-57.6,1.8-138.3-15.8-141.6,59.8c-0.7,15.2-5.5,50.1,8.3,62.1
		c8.2,7.2,22.6,10.1,38.6,11.2c0.1,10.8,0.1,21.7,0.6,32.5c0.1,1,0.4,1.7,0.7,2.6C282.1,207.4,169.6,301,116.3,435
		C51,599.2,92.2,811.9,234.5,925c53.6,42.5,111.9,79.6,180.1,89.7c104,15.4,219.3,9.8,313.6-40.9c62.9-33.8,125.6-94.2,162.4-154.8
		C938.6,740.1,947,625.1,936.1,535.6z M826.1,156.8c11.1,1.7,32,24,40.6,30.6c10,8.3,23.7,16.9,31.6,27.3c8.3,10.9,1.3,24.1-9,32.3
		c-16.2-10.2-31.5-24.8-46.2-36.4c-13.6-10.8-30.3-22-40.8-36.5C808.3,165.4,818.1,155.5,826.1,156.8z M809.4,214.4
		c7.5,5.6,15,10.8,21.1,15.6c5.5,4.3,10.9,8.6,16.4,12.9c-10.3,10.6-20.9,21.1-30.3,32.4c-7.2-7.6-14.5-15.1-22.4-22.3
		c-3.7-3.4-7.9-6.2-11.7-9.4C791.2,233.7,800.4,224.1,809.4,214.4z M391.1,94.7c-2.2-6.3-1.2-23.6,0-30.2
		c4.9-26,19.2-29.3,46.1-33.6c23.2-3.7,48.8-2.3,72.2-3c21.6,0.1,43.8-1,65.4,1c23.2,2.1,33.7,1,40.8,24.6
		c2.6,8.6,5.3,32.9,1.8,42.2c-8.2,21.8-25.9,15-49.6,15.6c-26,0.7-52,1.7-78,1.9C463.1,113.4,400.6,121.8,391.1,94.7z M438,138.2
		c17-0.4,33.4-1.7,43.9-1.7c25.9,0,51.7-1,77.6-1.7c4.4-0.1,9.4,0.1,14.7,0.4c0,9,0.4,18,1.1,27c-17.5-2.1-35-3.6-52.2-4
		c-28.8,0.5-57,4-84.5,9.6C438,157.9,438,148.1,438,138.2z M896.4,748.4c-22.5,74.8-82.7,135.5-144.2,181.4
		c-74.6,55.8-167.6,69.8-258.8,67.9c-81.4-1.7-137.9-18.4-204.1-62.1C148.9,842.9,81.1,666.9,119.4,503
		c44.2-189.4,211.9-318,403.7-321.6c186.7,3.8,336.1,116.6,380.5,300.4C924,566.2,921.4,665.2,896.4,748.4z"/>
	<path class="st0" d="M730.3,313.3c-0.4-0.3-0.8-0.4-1.2-0.6c-0.4-0.4-0.7-0.9-1.2-1.2c-129.4-90.7-301.2-93.6-429.2,3.4
		C179.2,405.6,128.5,568.2,169,713.1c37.9,135.6,218.4,245.8,354.3,237.5c42.8-2.6,93.8-10,130.7-32.6c60.9-37.4,122-98,161.5-157
		C916.4,610.2,867.1,420,730.3,313.3z M840.5,523c18.2,103.7-17.2,202.8-88.5,278.4C705,851.4,655,902,586.4,917.1
		c-75.3,16.5-149.9,12.4-218.9-26.1c-77.1-43.1-163-112.9-180.3-203.8c-18.1-94.8-3.4-197.8,52.2-277.5
		c109.3-157,322.8-185.5,476.2-78.5C776.4,379.1,826.9,445.5,840.5,523z"/>
	<path class="st0" d="M668.6,411c-44.5,45.1-88.9,90.1-133.4,135.2c-16.8-13.8-40.3-16.7-58.9-1.8c-19.9,15.9-28.1,56.1-9.5,75.9
		c18.1,19.1,54.2,21.4,74.2,4.4c19-16.1,19.8-40.4,9.1-60.4c45-45.6,90-91.2,135-136.8C695.6,416.8,679.2,400.3,668.6,411z
		 M487,606.8c-10.2-7.7-8-29-1.4-38.9c9.4-13.9,29.2-13.5,39-0.5c0.3,0.4,0.7,0.6,1,0.9c0.3,0.5,0.4,1,0.8,1.4
		C549.7,597.6,513.4,626.7,487,606.8z"/>
	<path class="st0" d="M378.8,351c-78,41.6-118.3,119-138.3,202.3c-3.5,14.5,18.9,20.8,22.4,6.2c18.7-77.8,54.6-149.5,127.7-188.4
		C403.8,364,392,343.9,378.8,351z"/>
	<path class="st0" d="M245.8,607.5c-15,0-15,23.3,0,23.3C260.8,630.8,260.8,607.5,245.8,607.5z"/>
	<path class="st0" d="M519.7,85.2c-0.8-11.1-1.6-22.3-2.4-33.4c-1.1-14.8-24.4-15-23.3,0c0.8,11.1,1.6,22.3,2.4,33.4
		C497.6,100,520.8,100.1,519.7,85.2z"/>
	<path class="st0" d="M579.6,76.2c-0.3-9.1-0.6-18.1-0.9-27.2c-0.5-14.9-23.8-15-23.3,0c0.3,9.1,0.6,18.1,0.9,27.2
		C556.8,91.1,580.1,91.2,579.6,76.2z"/>
	<path class="st0" d="M452.5,85.1c-1.5-10-1.7-19.9-1.1-29.9c0.9-14.9-22.3-14.9-23.3,0c-0.7,12.2,0.1,24.1,1.9,36.1
		C432.3,106,454.8,99.8,452.5,85.1z"/>
</g>
</svg>
