<?xml version="1.0" encoding="utf-8"?>
<!-- Generator: Adobe Illustrator 17.0.0, SVG Export Plug-In . SVG Version: 6.00 Build 0)  -->
<!DOCTYPE svg PUBLIC "-//W3C//DTD SVG 1.1//EN" "http://www.w3.org/Graphics/SVG/1.1/DTD/svg11.dtd">
<svg version="1.1" id="Layer_1" xmlns="http://www.w3.org/2000/svg" xmlns:xlink="http://www.w3.org/1999/xlink" x="0px" y="0px"
	 width="1025px" height="1024px" viewBox="0 0 1025 1024" enable-background="new 0 0 1025 1024" xml:space="preserve">
<g><path d="M727.040 211.968c-66.56 66.56-132.096 134.144-198.656 201.728-9.216 9.216-23.552 9.216-31.744 0-66.56-67.584-133.12-135.168-199.68-201.728-8.192-9.216-22.528-9.216-31.744 0-15.36 16.384-31.744 32.768-48.128 49.152-8.192 9.216-8.192 23.552 0 32.768 64.512 65.536 131.072 133.12 198.656 201.728 9.216 9.216 8.192 23.552 0 32.768-66.56 67.584-133.12 135.168-199.68 202.752-8.192 9.216-8.192 23.552 0 31.744l49.152 49.152c9.216 9.216 23.552 9.216 31.744 0l199.68-201.728c8.192-9.216 22.528-9.216 31.744 0 65.536 67.584 132.096 134.144 198.656 201.728 8.192 9.216 22.528 9.216 31.744 0 16.384-16.384 31.744-32.768 48.128-49.152 9.216-9.216 9.216-23.552 0-32.768-64.512-66.56-131.072-133.12-198.656-201.728-8.192-9.216-8.192-23.552 0-32.768 66.56-67.584 133.12-135.168 199.68-202.752 8.192-9.216 8.192-23.552 0-32.768l-49.152-49.152c-9.216-8.192-23.552-8.192-31.744 1.024z"></path></g>
</svg>
