<?xml version="1.0" encoding="utf-8"?>
<!-- Generator: Adobe Illustrator 17.0.0, SVG Export Plug-In . SVG Version: 6.00 Build 0)  -->
<!DOCTYPE svg PUBLIC "-//W3C//DTD SVG 1.1//EN" "http://www.w3.org/Graphics/SVG/1.1/DTD/svg11.dtd">
<svg version="1.1" id="Layer_1" xmlns="http://www.w3.org/2000/svg" xmlns:xlink="http://www.w3.org/1999/xlink" x="0px" y="0px"
	 width="1025px" height="1024px" viewBox="0 0 1025 1024" enable-background="new 0 0 1025 1024" xml:space="preserve">
<g><path d="M955.392 537.6c-6.144-43.008-26.624-78.848-61.44-106.496-24.576-19.456-53.248-32.768-80.896-46.080-29.696-15.36-59.392-30.72-81.92-55.296-13.312-14.336-24.576-29.696-35.84-46.080-41.984-59.392-91.136-107.52-157.696-138.24-98.304-44.032-195.584-43.008-288.768 9.216-96.256 53.248-154.624 137.216-176.128 244.736-16.384 78.848-8.192 156.672 12.288 235.52 4.096 11.264 8.192 23.552 12.288 35.84 15.36 40.96 36.864 79.872 68.608 111.616 37.888 36.864 80.896 62.464 136.192 57.344 36.864-3.072 71.68-12.288 108.544-19.456 26.624-4.096 53.248-7.168 80.896-1.024 23.552 5.12 43.008 17.408 63.488 29.696 30.72 18.432 62.464 37.888 97.28 50.176 43.008 15.36 86.016 15.36 128-5.12 28.672-13.312 53.248-32.768 74.752-56.32 77.824-84.992 118.784-183.296 100.352-300.032zM920.576 635.904c-16.384 82.944-56.32 152.576-122.88 205.824-34.816 27.648-73.728 39.936-117.76 28.672-26.624-7.168-51.2-19.456-74.752-32.768-19.456-11.264-38.912-23.552-58.368-34.816-36.864-21.504-77.824-26.624-120.832-20.48-32.768 5.12-64.512 12.288-97.28 18.432-52.224 12.288-97.28-3.072-135.168-40.96-26.624-27.648-46.080-60.416-60.416-96.256-29.696-75.776-39.936-154.624-28.672-235.52 15.36-114.688 74.752-201.728 180.224-251.904 83.968-39.936 167.936-32.768 250.88 8.192 54.272 26.624 95.232 69.632 129.024 118.784 20.48 27.648 39.936 56.32 68.608 75.776 25.6 15.36 51.2 29.696 76.8 44.032 18.432 10.24 35.84 19.456 53.248 29.696 27.648 17.408 45.056 43.008 51.2 66.56 12.288 44.032 13.312 79.872 6.144 116.736zM460.8 355.328c-96.256 25.6-151.552 120.832-125.952 217.088 24.576 93.184 122.88 148.48 217.088 122.88 93.184-25.6 148.48-122.88 122.88-216.064s-121.856-149.504-214.016-123.904zM477.184 432.128c-49.152 14.336-71.68 65.536-67.584 105.472 0 5.12 1.024 10.24 2.048 15.36 1.024 10.24-4.096 19.456-13.312 20.48-10.24 2.048-18.432-4.096-21.504-14.336-12.288-56.32 13.312-135.168 88.064-159.744 11.264-3.072 21.504 1.024 24.576 10.24 4.096 9.216-1.024 19.456-12.288 22.528z"></path></g>
</svg>
