<?xml version="1.0" encoding="utf-8"?>
<!-- Generator: Adobe Illustrator 17.0.0, SVG Export Plug-In . SVG Version: 6.00 Build 0)  -->
<!DOCTYPE svg PUBLIC "-//W3C//DTD SVG 1.1//EN" "http://www.w3.org/Graphics/SVG/1.1/DTD/svg11.dtd">
<svg version="1.1" id="Layer_1" xmlns="http://www.w3.org/2000/svg" xmlns:xlink="http://www.w3.org/1999/xlink" x="0px" y="0px"
	 width="1025px" height="1024px" viewBox="0 0 1025 1024" enable-background="new 0 0 1025 1024" xml:space="preserve">
<g><path d="M484.352 169.984h55.296c3.072 1.024 6.144 2.048 9.216 2.048 39.936 3.072 78.848 12.288 115.712 26.624 133.12 48.128 240.64 131.072 329.728 239.616 39.936 49.152 38.912 99.328-1.024 148.48-55.296 68.608-120.832 125.952-194.56 173.056-60.416 38.912-124.928 68.608-196.608 83.968-20.48 4.096-41.984 7.168-62.464 10.24h-55.296c-3.072-1.024-7.168-2.048-10.24-2.048-33.792-3.072-67.584-10.24-100.352-21.504-140.288-47.104-252.928-134.144-346.112-246.784-15.36-18.432-25.6-39.936-27.648-63.488-2.048-34.816 12.288-62.464 33.792-88.064 56.32-67.584 121.856-123.904 196.608-171.008 62.464-38.912 128-68.608 200.704-82.944 17.408-3.072 35.84-5.12 53.248-8.192zM297.984 512c0 117.76 96.256 212.992 212.992 214.016 117.76 0 214.016-96.256 214.016-214.016 0-116.736-96.256-212.992-212.992-212.992-117.76 0-214.016 95.232-214.016 212.992zM551.936 391.168c-41.984 35.84-52.224 73.728-26.624 109.568 24.576 36.864 62.464 40.96 113.664 13.312 5.12 43.008-31.744 98.304-78.848 116.736-54.272 22.528-116.736 4.096-150.528-41.984-35.84-47.104-34.816-110.592 2.048-155.648 33.792-43.008 96.256-61.44 140.288-41.984z"></path></g>
</svg>
