<?xml version="1.0" encoding="utf-8"?>
<!-- Generator: Adobe Illustrator 17.0.0, SVG Export Plug-In . SVG Version: 6.00 Build 0)  -->
<!DOCTYPE svg PUBLIC "-//W3C//DTD SVG 1.1//EN" "http://www.w3.org/Graphics/SVG/1.1/DTD/svg11.dtd">
<svg version="1.1" id="Layer_1" xmlns="http://www.w3.org/2000/svg" xmlns:xlink="http://www.w3.org/1999/xlink" x="0px" y="0px"
	 width="1025px" height="1024px" viewBox="0 0 1025 1024" enable-background="new 0 0 1025 1024" xml:space="preserve">
<g><path d="M480.256 473.088c9.216 86.016 76.8 153.6 158.72 153.6s149.504-67.584 158.72-153.6c90.112-13.312 149.504-79.872 151.552-83.968 15.36-17.408 14.336-45.056-3.072-61.44-17.408-15.36-44.032-14.336-59.392 4.096 0 0-40.96 46.080-100.352 54.272-4.096-10.24-9.216-19.456-14.336-28.672 0-1.024-20.48-192.512-20.48-192.512 0-7.168-8.192-12.288-17.408-12.288h-203.776c-9.216 0-16.384 6.144-16.384 12.288 0 0-15.36 197.632-12.288 199.68-4.096 7.168-7.168 14.336-10.24 21.504-58.368-8.192-99.328-53.248-100.352-54.272-15.36-18.432-41.984-19.456-59.392-4.096-17.408 16.384-18.432 44.032-3.072 61.44 3.072 4.096 61.44 70.656 151.552 83.968zM523.264 368.64h231.424c4.096 6.144 7.168 12.288 10.24 19.456h-251.904c3.072-7.168 6.144-13.312 10.24-19.456zM777.216 474.112c-9.216 74.752-67.584 132.096-138.24 132.096s-128-57.344-138.24-132.096h276.48zM260.096 478.208c0 33.792-17.408 63.488-44.032 79.872v-168.96h-18.432v177.152c-13.312 4.096-36.864 4.096-51.2 0v-177.152h-18.432v168.96c-26.624-15.36-45.056-46.080-45.056-79.872v-89.088h-18.432v89.088c0 58.368 43.008 105.472 98.304 110.592v282.624h19.456v-282.624c54.272-5.12 96.256-53.248 96.256-110.592v-89.088h-18.432v89.088zM677.888 643.072h-3.072c-11.264-2.048-22.528-3.072-34.816-3.072h-2.048c-11.264 0-22.528 1.024-33.792 3.072h-4.096c-125.952 16.384-230.4 106.496-275.456 228.352h628.736c-44.032-122.88-149.504-212.992-275.456-228.352z"></path></g>
</svg>
