<?xml version="1.0" encoding="utf-8"?>
<!-- Generator: Adobe Illustrator 17.0.0, SVG Export Plug-In . SVG Version: 6.00 Build 0)  -->
<!DOCTYPE svg PUBLIC "-//W3C//DTD SVG 1.1//EN" "http://www.w3.org/Graphics/SVG/1.1/DTD/svg11.dtd">
<svg version="1.1" id="Layer_1" xmlns="http://www.w3.org/2000/svg" xmlns:xlink="http://www.w3.org/1999/xlink" x="0px" y="0px"
	 width="1025px" height="1024px" viewBox="0 0 1025 1024" enable-background="new 0 0 1025 1024" xml:space="preserve">
<g><path d="M660.48 876.544c0-4.096-3.072-7.168-6.144-7.168h-508.928c-4.096 0-6.144 4.096-6.144 7.168v40.96c0 23.552 17.408 41.984 39.936 41.984h440.32c22.528 0 40.96-18.432 40.96-41.984v-40.96zM655.36 848.896c20.48 0 37.888-20.48 37.888-45.056s-17.408-46.080-37.888-46.080h-510.976c-21.504 0-38.912 20.48-38.912 46.080s17.408 45.056 38.912 45.056h510.976zM145.408 691.2h508.928c3.072 0 6.144-3.072 6.144-6.144v-1.024c0-71.68-26.624-131.072-76.8-171.008-46.080-36.864-110.592-56.32-184.32-56.32s-137.216 19.456-183.296 56.32c-51.2 39.936-77.824 99.328-77.824 172.032 0 3.072 3.072 6.144 7.168 6.144zM604.16 609.28c10.24 0 18.432 8.192 18.432 19.456s-8.192 19.456-18.432 19.456c-10.24 0-18.432-9.216-18.432-19.456 0-11.264 8.192-19.456 18.432-19.456zM532.48 551.936c10.24 0 19.456 8.192 19.456 19.456s-9.216 19.456-19.456 19.456c-10.24 0-18.432-9.216-18.432-19.456 0-11.264 8.192-19.456 18.432-19.456zM474.112 609.28c10.24 0 18.432 8.192 18.432 19.456s-8.192 19.456-18.432 19.456c-10.24 0-18.432-9.216-18.432-19.456 0-11.264 8.192-19.456 18.432-19.456zM403.456 551.936c10.24 0 18.432 8.192 18.432 19.456s-8.192 19.456-18.432 19.456-18.432-9.216-18.432-19.456c0-11.264 8.192-19.456 18.432-19.456zM331.776 609.28c10.24 0 18.432 8.192 18.432 19.456s-8.192 19.456-18.432 19.456-18.432-9.216-18.432-19.456c0-11.264 8.192-19.456 18.432-19.456zM273.408 551.936c10.24 0 18.432 8.192 18.432 19.456s-8.192 19.456-18.432 19.456c-10.24 0-18.432-9.216-18.432-19.456 0-11.264 8.192-19.456 18.432-19.456zM201.728 609.28c10.24 0 18.432 8.192 18.432 19.456s-8.192 19.456-18.432 19.456-18.432-9.216-18.432-19.456c0-11.264 8.192-19.456 18.432-19.456zM119.808 744.448h560.128c7.168 0 13.312-6.144 13.312-14.336s-6.144-14.336-13.312-14.336h-560.128c-8.192 0-14.336 6.144-14.336 14.336s6.144 14.336 14.336 14.336zM504.832 166.912l137.216-40.96c7.168-2.048 16.384 0 22.528 5.12 7.168 5.12 11.264 13.312 11.264 22.528v93.184h57.344v-93.184c0-28.672-12.288-55.296-32.768-71.68-21.504-16.384-49.152-22.528-74.752-14.336l-136.192 39.936c-15.36 4.096-24.576 21.504-20.48 37.888 5.12 16.384 20.48 25.6 35.84 21.504zM874.496 291.84h-339.968c-24.576 0-44.032 20.48-44.032 46.080 0 17.408 9.216 31.744 21.504 39.936l2.048 49.152 1.024 16.384c121.856 54.272 205.824 169.984 205.824 314.368 0 74.752-15.36 145.408-55.296 201.728h151.552c29.696 0 54.272-24.576 56.32-55.296l21.504-477.184 2.048-49.152c13.312-8.192 21.504-23.552 21.504-39.936 0-25.6-19.456-46.080-44.032-46.080z"></path></g>
</svg>
