<?xml version="1.0" encoding="utf-8"?>
<!-- Generator: Adobe Illustrator 17.0.0, SVG Export Plug-In . SVG Version: 6.00 Build 0)  -->
<!DOCTYPE svg PUBLIC "-//W3C//DTD SVG 1.1//EN" "http://www.w3.org/Graphics/SVG/1.1/DTD/svg11.dtd">
<svg version="1.1" id="Layer_1" xmlns="http://www.w3.org/2000/svg" xmlns:xlink="http://www.w3.org/1999/xlink" x="0px" y="0px"
	 width="1025px" height="1024px" viewBox="0 0 1025 1024" enable-background="new 0 0 1025 1024" xml:space="preserve">
<g><path d="M64.512 353.28c10.24 46.080 26.624 89.088 51.2 130.048 37.888 62.464 87.040 112.64 149.504 150.528 33.792 21.504 71.68 36.864 110.592 48.128 4.096 1.024 8.192 4.096 11.264 7.168 40.96 44.032 89.088 77.824 145.408 97.28 1.024 1.024 2.048 1.024 5.12 2.048 2.048-17.408 4.096-34.816 6.144-51.2 1.024-12.288 3.072-24.576 5.12-36.864 0-2.048 3.072-6.144 5.12-6.144 57.344-8.192 109.568-26.624 159.744-55.296 2.048-1.024 3.072-2.048 7.168-3.072 27.648 64.512 66.56 119.808 121.856 166.912 0-5.12 0-8.192 0-11.264 2.048-58.368 3.072-117.76 5.12-176.128 0-6.144 2.048-12.288 6.144-17.408 33.792-48.128 67.584-97.28 102.4-145.408 1.024-2.048 2.048-4.096 4.096-7.168-71.68 5.12-136.192 26.624-197.632 62.464-37.888-87.040-95.232-155.648-176.128-206.848 18.432 0 65.536 23.552 110.592 54.272 6.144-34.816 11.264-68.608 16.384-102.4-93.184-31.744-185.344-47.104-281.6-11.264 62.464 165.888-26.624 304.128-97.28 349.184 23.552-22.528 41.984-47.104 56.32-74.752 32.768-64.512 39.936-131.072 21.504-199.68-7.168-27.648-18.432-52.224-34.816-75.776-1.024-2.048-5.12-4.096-7.168-4.096-48.128-2.048-95.232 4.096-140.288 17.408-38.912 11.264-74.752 26.624-107.52 49.152-19.456 12.288-37.888 26.624-56.32 40.96-2.048 2.048-3.072 6.144-2.048 9.216zM230.4 371.712c21.504-10.24 46.080-2.048 56.32 18.432s2.048 46.080-18.432 56.32c-20.48 10.24-46.080 2.048-56.32-19.456-10.24-20.48-2.048-45.056 18.432-55.296z"></path></g>
</svg>
