<?xml version="1.0" encoding="utf-8"?>
<!-- Generator: Adobe Illustrator 17.0.0, SVG Export Plug-In . SVG Version: 6.00 Build 0)  -->
<!DOCTYPE svg PUBLIC "-//W3C//DTD SVG 1.1//EN" "http://www.w3.org/Graphics/SVG/1.1/DTD/svg11.dtd">
<svg version="1.1" id="Layer_1" xmlns="http://www.w3.org/2000/svg" xmlns:xlink="http://www.w3.org/1999/xlink" x="0px" y="0px"
	 width="1025px" height="1024px" viewBox="0 0 1025 1024" enable-background="new 0 0 1025 1024" xml:space="preserve">
<g><path d="M478.208 375.808c10.24 12.288 20.48 23.552 33.792 32.768 10.24 6.144 20.48 8.192 31.744 5.12 6.144-2.048 11.264-3.072 16.384-6.144 30.72-14.336 55.296-35.84 74.752-62.464 16.384-20.48 26.624-43.008 27.648-69.632 0-12.288 0-24.576-4.096-35.84-7.168-18.432-21.504-28.672-38.912-34.816-18.432-8.192-37.888-12.288-58.368-14.336l-4.096-1.024c-21.504-2.048-41.984-4.096-63.488-1.024-23.552 4.096-40.96 15.36-49.152 38.912-10.24 24.576-11.264 50.176-4.096 75.776 8.192 26.624 21.504 51.2 37.888 72.704zM514.048 387.072c0 0-1.024 0-1.024 0-2.048-2.048-4.096-4.096-5.12-7.168 0 0 2.048-2.048 3.072-2.048s3.072 2.048 4.096 4.096c1.024 2.048 0 5.12-1.024 5.12zM552.96 393.216c-1.024-1.024-3.072-2.048-3.072-3.072 1.024-1.024 2.048-3.072 4.096-4.096 3.072-1.024 5.12-1.024 5.12 0 1.024 0 1.024 1.024 1.024 1.024-1.024 3.072-5.12 6.144-7.168 6.144zM640 276.48c1.024-1.024 2.048-1.024 2.048 0 1.024 0 1.024 1.024 1.024 1.024 0 4.096-1.024 9.216-2.048 13.312 0 0 0 0-1.024 1.024 0 0-1.024 0-2.048-1.024 0 0 0 0 0-1.024s0-2.048 0-3.072 0-5.12 0-6.144c1.024-1.024 1.024-2.048 2.048-3.072 0-1.024 0-1.024 0-1.024zM629.76 233.472c0-1.024 1.024-3.072 3.072-3.072 1.024 0 2.048 1.024 3.072 2.048 2.048 2.048 3.072 4.096 3.072 7.168 1.024 2.048 0 5.12-1.024 7.168 0 1.024-1.024 1.024-1.024 1.024-2.048 1.024-4.096-1.024-5.12-2.048-3.072-3.072-3.072-8.192-2.048-12.288zM622.592 315.392c1.024-1.024 3.072-1.024 3.072-1.024 1.024 1.024 1.024 1.024 1.024 2.048s0 3.072-1.024 6.144c-2.048 3.072-3.072 5.12-6.144 7.168-1.024 1.024-3.072 1.024-3.072 1.024-1.024-1.024-2.048-3.072-1.024-4.096 1.024-4.096 3.072-8.192 7.168-11.264zM610.304 271.36c2.048-2.048 5.12-2.048 6.144 1.024 0 1.024 0 2.048 1.024 4.096 0 2.048 0 6.144-1.024 8.192-1.024 1.024-1.024 2.048-2.048 3.072-2.048 3.072-5.12 3.072-6.144 0-2.048-4.096-1.024-13.312 2.048-16.384zM595.968 222.208c2.048-2.048 5.12-2.048 7.168 0 2.048 3.072 2.048 6.144 3.072 9.216 0 2.048-1.024 6.144-1.024 8.192-1.024 1.024-1.024 2.048-2.048 3.072-2.048 2.048-4.096 2.048-7.168 0-3.072-5.12-3.072-15.36 0-20.48zM593.92 356.352c-2.048 4.096-5.12 8.192-9.216 10.24-1.024 0-2.048 0-3.072 0 0-2.048 1.024-5.12 2.048-7.168s4.096-4.096 7.168-6.144c0 0 2.048 0 2.048 1.024 1.024 0 1.024 1.024 1.024 2.048zM584.704 309.248c1.024-1.024 3.072-2.048 4.096-2.048 2.048 1.024 3.072 3.072 3.072 5.12 0 1.024 0 1.024 0 2.048s0 2.048 1.024 3.072-1.024 2.048-2.048 4.096c-2.048 2.048-3.072 4.096-4.096 6.144-3.072 3.072-6.144 2.048-7.168-2.048-1.024-6.144 1.024-11.264 5.12-16.384zM569.344 264.192c3.072-4.096 7.168-3.072 8.192 1.024 1.024 1.024 1.024 3.072 1.024 5.12 1.024 3.072 0 7.168-1.024 10.24-1.024 1.024-2.048 3.072-3.072 4.096-2.048 4.096-6.144 3.072-7.168-1.024-3.072-5.12-2.048-15.36 2.048-19.456zM559.104 361.472c-1.024 2.048-3.072 3.072-4.096 2.048-2.048 0-3.072-2.048-3.072-3.072-1.024-1.024-1.024-2.048-1.024-3.072 0-2.048 1.024-5.12 2.048-7.168 1.024-1.024 1.024-2.048 2.048-3.072 2.048-2.048 6.144-1.024 7.168 2.048 1.024 5.12 0 9.216-3.072 12.288zM552.96 216.064c3.072-3.072 6.144-3.072 7.168 2.048 1.024 1.024 1.024 3.072 1.024 4.096 1.024 3.072 0 7.168-1.024 10.24-1.024 1.024-2.048 3.072-3.072 4.096-2.048 3.072-5.12 3.072-7.168-1.024-2.048-5.12-1.024-14.336 3.072-19.456zM540.672 303.104c3.072-3.072 6.144-3.072 8.192 1.024 0 1.024 0 3.072 0 4.096 1.024 3.072 0 7.168-1.024 9.216 0 2.048-1.024 3.072-2.048 4.096-2.048 3.072-5.12 3.072-7.168-1.024s-1.024-13.312 2.048-17.408zM535.552 375.808c2.048 1.024 4.096 4.096 3.072 8.192 0 2.048-1.024 4.096-2.048 5.12 0 1.024-2.048 2.048-3.072 2.048s-2.048-1.024-2.048-3.072c-1.024 0-1.024-1.024-1.024-2.048 0-2.048 0-5.12 1.024-7.168s3.072-3.072 4.096-3.072zM521.216 262.144c1.024-2.048 2.048-3.072 3.072-5.12 2.048-3.072 5.12-2.048 7.168 1.024 3.072 6.144 2.048 16.384-2.048 20.48-3.072 3.072-6.144 3.072-8.192 0 0-2.048-1.024-4.096-1.024-6.144 0-3.072 0-7.168 1.024-10.24zM522.24 343.040c1.024 1.024 1.024 2.048 2.048 4.096 0 2.048 0 6.144-1.024 9.216-1.024 2.048-3.072 3.072-4.096 3.072-3.072-1.024-5.12-4.096-5.12-8.192 0-3.072 1.024-6.144 2.048-9.216 2.048-2.048 5.12-2.048 6.144 1.024zM505.856 217.088c1.024-2.048 3.072-5.12 4.096-6.144 3.072-4.096 7.168-3.072 7.168 2.048 2.048 6.144 0 12.288-5.12 16.384-1.024 1.024-3.072 2.048-4.096 2.048-2.048-1.024-3.072-3.072-3.072-4.096s0-2.048 0-3.072c0-1.024-1.024-3.072-1.024-3.072s1.024-2.048 2.048-4.096zM497.664 297.984c2.048-4.096 5.12-4.096 7.168 0 1.024 2.048 2.048 4.096 2.048 7.168 1.024 2.048 0 6.144-1.024 9.216-1.024 1.024-2.048 3.072-4.096 3.072-2.048 1.024-5.12-2.048-5.12-7.168 0-4.096 0-8.192 1.024-12.288zM491.52 353.28c-1.024 1.024-1.024 1.024-3.072 0-3.072-3.072-5.12-8.192-5.12-12.288 0-3.072 2.048-3.072 3.072-2.048 3.072 2.048 4.096 4.096 5.12 7.168 1.024 2.048 1.024 6.144 0 7.168zM485.376 253.952c2.048-2.048 4.096-2.048 5.12 1.024 1.024 1.024 1.024 3.072 1.024 4.096 1.024 2.048 0 6.144-1.024 8.192-1.024 1.024-1.024 2.048-2.048 4.096-2.048 2.048-4.096 1.024-6.144-1.024-2.048-4.096-1.024-13.312 3.072-16.384zM474.112 210.944c1.024-1.024 4.096-2.048 5.12-2.048 1.024 1.024 1.024 2.048 2.048 3.072 0 2.048 0 5.12-2.048 7.168-1.024 2.048-3.072 4.096-5.12 5.12-2.048 3.072-5.12 1.024-5.12-2.048 0-5.12 2.048-8.192 5.12-11.264zM462.848 292.864c0 0 1.024 0 1.024-1.024 1.024 0 2.048 1.024 3.072 2.048 3.072 4.096 4.096 8.192 4.096 13.312 0 1.024-1.024 3.072-2.048 3.072s-2.048-1.024-3.072-2.048-3.072-5.12-4.096-8.192c0-3.072 0-6.144 1.024-7.168zM457.728 251.904c0-1.024 1.024-2.048 2.048-2.048 0 1.024 1.024 2.048 1.024 2.048 1.024 1.024 1.024 2.048 1.024 4.096 0 1.024-1.024 4.096-2.048 6.144 0 1.024 0 2.048-1.024 3.072 0 1.024-1.024 2.048-2.048 2.048 0 0-1.024-1.024-1.024-2.048-1.024-5.12 0-9.216 2.048-13.312zM508.928 149.504c3.072 3.072 7.168 6.144 11.264 10.24 2.048 2.048 1.024 3.072-1.024 3.072s-3.072 0-5.12 1.024c-1.024 0-2.048 0-3.072 1.024s-2.048 3.072 0 4.096c0 1.024 1.024 2.048 2.048 2.048 8.192 3.072 17.408 6.144 25.6 8.192s16.384 3.072 23.552 4.096c11.264 1.024 22.528 2.048 33.792 2.048 6.144 1.024 12.288-1.024 19.456-2.048 1.024 0 1.024-1.024 2.048-1.024 1.024-1.024 1.024-3.072 0-4.096-1.024 0-1.024-1.024-2.048-1.024-1.024-1.024-3.072-1.024-4.096-2.048-2.048-1.024-2.048-2.048 0-3.072 3.072-2.048 5.12-3.072 7.168-4.096 5.12-3.072 11.264-7.168 15.36-11.264 4.096-3.072 3.072-6.144-2.048-7.168-1.024 0-2.048 0-3.072 0-6.144 1.024-12.288 1.024-17.408 3.072-6.144 1.024-11.264 3.072-17.408 5.12-2.048 0-4.096 0-3.072-1.024 0 0 0-1.024 0-1.024 3.072-5.12 5.12-10.24 7.168-16.384 0-2.048 0-5.12-2.048-6.144-1.024-1.024-4.096 0-6.144 1.024-4.096 3.072-7.168 6.144-11.264 9.216-1.024 1.024-2.048 2.048-3.072 3.072-1.024 2.048-2.048 1.024-1.024-2.048 3.072-16.384 9.216-31.744 20.48-45.056 2.048-2.048 2.048-6.144-1.024-7.168-2.048-2.048-5.12-3.072-9.216-3.072-6.144 0-9.216 5.12-11.264 10.24-4.096 8.192-7.168 18.432-10.24 27.648-1.024 5.12-2.048 9.216-3.072 15.36 0 2.048-1.024 3.072-2.048 0-1.024-1.024-2.048-2.048-2.048-4.096-3.072-4.096-6.144-8.192-9.216-12.288-3.072-3.072-6.144-1.024-7.168 3.072 0 2.048-1.024 5.12 0 7.168 0 3.072 0 6.144 1.024 9.216 0 3.072-1.024 4.096-4.096 2.048-4.096-3.072-9.216-6.144-13.312-9.216-5.12-2.048-11.264-4.096-16.384-6.144-2.048-1.024-5.12 0-6.144 1.024s0 4.096 1.024 6.144c2.048 3.072 4.096 7.168 7.168 10.24zM436.224 642.048c1.024 2.048 2.048 4.096 3.072 7.168 0 3.072 1.024 6.144 2.048 9.216h17.408c-1.024-6.144-3.072-11.264-4.096-16.384-1.024-2.048-1.024-5.12-1.024-7.168-1.024-2.048-1.024-5.12-2.048-7.168-2.048-14.336-3.072-28.672-2.048-43.008-11.264 10.24-25.6 17.408-40.96 20.48 10.24 8.192 18.432 17.408 24.576 29.696 1.024 2.048 2.048 5.12 3.072 7.168zM423.936 651.264c-1.024-3.072-2.048-5.12-3.072-8.192-7.168-16.384-21.504-28.672-38.912-34.816-2.048-1.024-5.12-2.048-7.168-2.048v2.048c-1.024 5.12-3.072 11.264-5.12 16.384-6.144 13.312-15.36 24.576-27.648 33.792h83.968c-1.024-3.072-1.024-5.12-2.048-7.168zM461.824 530.432c0 0 0 0 0-1.024 1.024-2.048 0-4.096 0-6.144s1.024-4.096 1.024-6.144c-2.048-19.456-11.264-35.84-25.6-47.104-12.288 11.264-28.672 18.432-46.080 20.48-3.072 0-5.12 0-8.192 0-9.216 0-18.432-1.024-26.624-4.096 0 14.336-3.072 27.648-10.24 39.936 13.312 11.264 23.552 27.648 27.648 46.080 1.024 3.072 2.048 7.168 2.048 11.264 0 2.048 0 4.096 0 6.144h1.024c2.048 0 4.096 1.024 7.168 1.024 5.12 1.024 10.24 1.024 16.384 1.024 23.552-2.048 43.008-16.384 54.272-35.84 1.024-5.12 2.048-10.24 4.096-15.36l1.024-2.048c0-3.072 1.024-5.12 2.048-8.192zM277.504 657.408c0 0 1.024 1.024 2.048 1.024h26.624c27.648-6.144 49.152-27.648 54.272-54.272 0-1.024 0-3.072 1.024-4.096 0-1.024 0-2.048 0-3.072 0-2.048 0-3.072 0-5.12v-2.048c0-2.048 0-3.072 0-5.12 0 0 0-1.024 0-1.024-2.048-18.432-11.264-33.792-23.552-45.056-3.072 3.072-5.12 6.144-8.192 8.192-2.048 2.048-4.096 4.096-6.144 5.12s-4.096 3.072-6.144 4.096c-10.24 7.168-22.528 11.264-35.84 12.288-3.072 1.024-5.12 1.024-8.192 1.024-2.048 0-4.096-1.024-6.144-1.024 0 2.048 1.024 4.096 1.024 5.12 2.048 25.6-7.168 49.152-23.552 66.56 9.216 8.192 20.48 14.336 32.768 17.408zM350.208 452.608c1.024 2.048 2.048 5.12 3.072 7.168 0 3.072 1.024 5.12 2.048 7.168 0 1.024 0 2.048 0 3.072 10.24 5.12 22.528 7.168 33.792 6.144 13.312-1.024 25.6-6.144 35.84-14.336 2.048-1.024 4.096-3.072 5.12-5.12 2.048-2.048 4.096-3.072 6.144-5.12 11.264-13.312 17.408-31.744 15.36-50.176-3.072-35.84-32.768-62.464-68.608-62.464-2.048 0-4.096 0-6.144 0-36.864 4.096-65.536 36.864-61.44 74.752 15.36 8.192 27.648 22.528 34.816 38.912zM191.488 650.24c12.288-1.024 23.552-6.144 32.768-12.288 2.048-2.048 4.096-3.072 6.144-5.12 2.048-1.024 3.072-3.072 5.12-5.12 12.288-13.312 19.456-32.768 17.408-52.224 0-3.072-1.024-6.144-1.024-9.216-1.024-3.072-2.048-6.144-3.072-8.192-1.024-4.096-2.048-7.168-4.096-10.24-1.024-1.024-1.024-2.048-2.048-3.072-1.024-2.048-2.048-4.096-4.096-6.144-1.024-2.048-3.072-4.096-5.12-5.12-5.12-6.144-12.288-10.24-19.456-14.336-3.072-1.024-6.144-2.048-9.216-3.072s-6.144-2.048-9.216-2.048c-3.072-1.024-7.168-1.024-10.24-1.024-2.048 0-4.096 0-6.144 0-18.432 2.048-34.816 10.24-47.104 24.576-11.264 14.336-17.408 31.744-15.36 50.176 3.072 37.888 35.84 65.536 74.752 62.464zM76.8 339.968c53.248 16.384 105.472 41.984 135.168 90.112 1.024 2.048 2.048 4.096 4.096 6.144 1.024 3.072 2.048 5.12 4.096 7.168-11.264 13.312-16.384 30.72-14.336 48.128 0 4.096 1.024 6.144 1.024 9.216 14.336 4.096 27.648 12.288 37.888 22.528 2.048 2.048 4.096 4.096 5.12 6.144 2.048 1.024 3.072 3.072 4.096 5.12 4.096 6.144 7.168 12.288 9.216 18.432 6.144 1.024 11.264 2.048 16.384 1.024 12.288-1.024 23.552-5.12 33.792-12.288 2.048-2.048 4.096-3.072 6.144-5.12s4.096-4.096 6.144-6.144v0c0 0 1.024-1.024 1.024-1.024 1.024-1.024 2.048-3.072 3.072-5.12 2.048-2.048 3.072-4.096 4.096-6.144 6.144-11.264 9.216-24.576 8.192-37.888v-1.024c0 0 0 0 0 0 0-3.072-1.024-6.144-2.048-9.216v0c0-3.072-1.024-5.12-2.048-8.192-1.024-1.024-1.024-3.072-2.048-5.12-4.096-8.192-8.192-14.336-14.336-20.48-4.096-3.072-7.168-6.144-11.264-9.216-3.072-1.024-5.12-2.048-8.192-4.096-9.216-3.072-18.432-6.144-28.672-6.144-2.048 0-4.096 0-6.144 1.024-7.168 0-13.312 2.048-19.456 5.12l-4.096-6.144c-1.024-2.048-3.072-5.12-4.096-7.168-35.84-54.272-93.184-83.968-156.672-103.424-20.48-7.168-26.624 26.624-6.144 33.792zM176.128 402.432c-70.656-71.68-108.544 89.088-108.544 89.088 46.080 25.6 179.2-17.408 108.544-89.088zM943.104 232.448c-59.392 5.12-116.736 17.408-162.816 52.224-3.072 2.048-6.144 5.12-10.24 7.168-3.072 3.072-6.144 6.144-9.216 9.216-7.168-2.048-15.36-3.072-22.528-3.072-41.984 0-80.896 28.672-95.232 73.728-1.024 2.048-2.048 4.096-2.048 6.144-4.096 11.264-14.336 32.768-41.984 47.104-38.912 19.456-59.392 37.888-59.392 37.888v0c-22.528 17.408-41.984 40.96-54.272 67.584-1.024 2.048-2.048 4.096-2.048 7.168-1.024 2.048-2.048 4.096-3.072 6.144l-1.024 4.096c-8.192 24.576-9.216 51.2-5.12 76.8 0 2.048 0 5.12 1.024 7.168 0 2.048 1.024 5.12 1.024 7.168 2.048 6.144 4.096 12.288 6.144 18.432h378.88c7.168-30.72 6.144-62.464-4.096-92.16v0s-4.096-27.648-24.576-65.536c-15.36-30.72-10.24-56.32-7.168-65.536 1.024-2.048 1.024-3.072 2.048-4.096 1.024-3.072 2.048-7.168 2.048-10.24-19.456-13.312-34.816-29.696-40.96-49.152-3.072-11.264-5.12-30.72 10.24-50.176-1.024-1.024-2.048-2.048-3.072-3.072 3.072-2.048 6.144-4.096 9.216-6.144 3.072-3.072 6.144-5.12 9.216-7.168l5.12-2.048c2.048-1.024 3.072-3.072 4.096-3.072 11.264-7.168 21.504-12.288 31.744-13.312 27.648-10.24 57.344-15.36 87.040-17.408 22.528-2.048 24.576-37.888 1.024-35.84zM864.256 299.008c-9.216 0-20.48 4.096-32.768 12.288-2.048 1.024-5.12 3.072-7.168 5.12-3.072 2.048-5.12 4.096-8.192 7.168-3.072 2.048-5.12 5.12-7.168 8.192-18.432 25.6-3.072 52.224 22.528 71.68 4.096 3.072 7.168 5.12 11.264 7.168 3.072 2.048 6.144 4.096 10.24 6.144 17.408 8.192 36.864 13.312 54.272 13.312 6.144 0 11.264 0 16.384-2.048 0 0-2.048-129.024-59.392-129.024zM139.264 672.768c0 210.944 171.008 261.12 382.976 261.12 210.944 0 381.952-50.176 381.952-261.12h-764.928z"></path></g>
</svg>
