<?xml version="1.0" encoding="utf-8"?>
<!-- Generator: Adobe Illustrator 17.0.0, SVG Export Plug-In . SVG Version: 6.00 Build 0)  -->
<!DOCTYPE svg PUBLIC "-//W3C//DTD SVG 1.1//EN" "http://www.w3.org/Graphics/SVG/1.1/DTD/svg11.dtd">
<svg version="1.1" id="Layer_1" xmlns="http://www.w3.org/2000/svg" xmlns:xlink="http://www.w3.org/1999/xlink" x="0px" y="0px"
	 width="1025px" height="1024px" viewBox="0 0 1025 1024" enable-background="new 0 0 1025 1024" xml:space="preserve">
<g><path d="M828.416 199.68c-40.96-39.936-89.088-71.68-142.336-94.208-55.296-23.552-113.664-34.816-174.080-34.816s-118.784 11.264-174.080 34.816c-53.248 22.528-101.376 54.272-142.336 94.208-41.984 40.96-73.728 88.064-96.256 140.288-23.552 54.272-34.816 112.64-34.816 172.032s11.264 117.76 34.816 172.032c22.528 52.224 55.296 99.328 96.256 140.288 40.96 39.936 89.088 71.68 142.336 94.208 55.296 23.552 113.664 34.816 174.080 34.816s118.784-11.264 175.104-34.816c53.248-22.528 100.352-54.272 142.336-94.208 40.96-40.96 72.704-88.064 95.232-140.288 23.552-54.272 35.84-112.64 35.84-172.032s-12.288-117.76-35.84-172.032c-22.528-52.224-54.272-99.328-96.256-140.288zM871.424 476.16h-96.256c-7.168 0-13.312-6.144-14.336-13.312-3.072-46.080-10.24-90.112-20.48-130.048-2.048-8.192 2.048-15.36 9.216-17.408 17.408-6.144 33.792-12.288 50.176-19.456 6.144-3.072 15.36-1.024 20.48 5.12 32.768 47.104 55.296 102.4 63.488 161.792 1.024 7.168-5.12 13.312-12.288 13.312zM561.152 172.032c4.096 2.048 7.168 5.12 11.264 8.192 21.504 16.384 41.984 40.96 58.368 71.68 2.048 3.072 3.072 5.12 4.096 8.192 2.048 4.096-2.048 9.216-9.216 10.24-20.48 3.072-41.984 5.12-63.488 6.144-7.168 1.024-13.312-5.12-13.312-12.288v-84.992c0-8.192 5.12-11.264 12.288-7.168zM451.584 180.224c4.096-3.072 7.168-6.144 11.264-8.192 7.168-4.096 12.288-1.024 12.288 7.168v84.992c0 7.168-6.144 13.312-13.312 12.288-21.504-1.024-43.008-3.072-63.488-6.144-7.168-1.024-12.288-6.144-9.216-10.24 1.024-3.072 2.048-5.12 4.096-8.192 16.384-30.72 36.864-55.296 58.368-71.68zM355.328 349.184c2.048-7.168 9.216-11.264 16.384-10.24 29.696 5.12 59.392 8.192 90.112 10.24 7.168 0 13.312 6.144 13.312 14.336v99.328c0 7.168-6.144 13.312-13.312 13.312h-112.64c-7.168 0-13.312-6.144-12.288-13.312 2.048-32.768 6.144-65.536 13.312-95.232 2.048-6.144 3.072-12.288 5.12-18.432zM475.136 562.176v98.304c0 8.192-6.144 14.336-13.312 14.336-30.72 2.048-60.416 5.12-89.088 10.24-7.168 1.024-15.36-3.072-17.408-10.24s-3.072-13.312-5.12-19.456c-6.144-29.696-11.264-61.44-13.312-94.208-1.024-7.168 5.12-13.312 12.288-13.312h112.64c7.168 0 13.312 6.144 13.312 14.336zM475.136 759.808v83.968c0 7.168-5.12 11.264-12.288 7.168-3.072-2.048-7.168-5.12-11.264-8.192-21.504-16.384-41.984-41.984-58.368-72.704-2.048-2.048-3.072-4.096-4.096-7.168-2.048-3.072 2.048-8.192 10.24-9.216 20.48-3.072 40.96-5.12 62.464-6.144 7.168-1.024 13.312 5.12 13.312 12.288zM572.416 842.752c-4.096 3.072-7.168 5.12-11.264 8.192-7.168 4.096-12.288 0-12.288-7.168v-83.968c0-7.168 6.144-13.312 13.312-12.288 21.504 1.024 41.984 3.072 62.464 6.144 8.192 1.024 12.288 5.12 10.24 9.216-1.024 2.048-2.048 5.12-4.096 7.168-16.384 31.744-36.864 56.32-58.368 72.704zM668.672 674.816c-2.048 7.168-10.24 11.264-17.408 10.24-28.672-5.12-58.368-8.192-89.088-10.24-7.168 0-13.312-6.144-13.312-14.336v-99.328c0-7.168 6.144-13.312 13.312-13.312h112.64c7.168 0 13.312 6.144 12.288 13.312-2.048 32.768-7.168 63.488-13.312 94.208-2.048 6.144-3.072 12.288-5.12 19.456zM548.864 462.848v-99.328c0-8.192 6.144-14.336 13.312-14.336 30.72-2.048 60.416-5.12 90.112-10.24 7.168-1.024 15.36 3.072 16.384 10.24 2.048 6.144 3.072 12.288 5.12 18.432 7.168 29.696 11.264 62.464 14.336 95.232 0 7.168-6.144 13.312-13.312 13.312h-112.64c-7.168 0-13.312-6.144-13.312-13.312zM746.496 239.616c-7.168 3.072-14.336 5.12-21.504 7.168-7.168 3.072-15.36-1.024-18.432-8.192-4.096-7.168-7.168-13.312-11.264-20.48-5.12-10.24-11.264-20.48-18.432-30.72-4.096-6.144-2.048-8.192 5.12-5.12 23.552 12.288 46.080 26.624 66.56 43.008 6.144 5.12 5.12 11.264-2.048 14.336zM347.136 188.416c-6.144 9.216-12.288 19.456-18.432 29.696-4.096 7.168-7.168 13.312-11.264 20.48-3.072 7.168-11.264 11.264-18.432 8.192-7.168-2.048-14.336-4.096-21.504-7.168s-8.192-9.216-2.048-14.336c20.48-16.384 43.008-30.72 66.56-43.008 7.168-3.072 9.216-1.024 5.12 6.144zM225.28 295.936c15.36 7.168 31.744 13.312 49.152 19.456 7.168 2.048 11.264 9.216 9.216 16.384-10.24 40.96-17.408 84.992-20.48 130.048 0 8.192-7.168 14.336-14.336 14.336h-96.256c-7.168 0-13.312-6.144-12.288-13.312 8.192-59.392 30.72-114.688 64.512-161.792 4.096-6.144 13.312-8.192 20.48-5.12zM152.576 547.84h96.256c7.168 0 14.336 6.144 14.336 14.336 3.072 45.056 10.24 89.088 21.504 129.024 2.048 8.192-3.072 15.36-10.24 17.408-17.408 6.144-33.792 12.288-49.152 19.456-7.168 3.072-16.384 1.024-21.504-5.12-32.768-47.104-55.296-102.4-63.488-161.792-1.024-7.168 5.12-13.312 12.288-13.312zM277.504 784.384c7.168-3.072 14.336-5.12 22.528-8.192 7.168-2.048 15.36 2.048 18.432 9.216 3.072 6.144 6.144 12.288 10.24 19.456 6.144 11.264 13.312 21.504 19.456 31.744 5.12 6.144 3.072 9.216-4.096 5.12-24.576-11.264-47.104-26.624-68.608-43.008-6.144-5.12-5.12-11.264 2.048-14.336zM675.84 836.608c6.144-9.216 13.312-20.48 19.456-31.744 4.096-7.168 7.168-13.312 10.24-19.456 3.072-7.168 11.264-11.264 18.432-9.216 8.192 3.072 15.36 5.12 22.528 8.192s8.192 9.216 2.048 14.336c-20.48 16.384-44.032 31.744-68.608 44.032-7.168 3.072-9.216 1.024-4.096-6.144zM798.72 728.064c-15.36-7.168-31.744-13.312-49.152-19.456-8.192-2.048-12.288-10.24-10.24-17.408 11.264-39.936 18.432-83.968 21.504-130.048 0-7.168 7.168-13.312 14.336-13.312h96.256c7.168 0 13.312 6.144 12.288 13.312-8.192 59.392-30.72 114.688-63.488 161.792-5.12 6.144-14.336 8.192-21.504 5.12z"></path></g>
</svg>
