<?xml version="1.0" encoding="utf-8"?>
<!-- Generator: Adobe Illustrator 17.0.0, SVG Export Plug-In . SVG Version: 6.00 Build 0)  -->
<!DOCTYPE svg PUBLIC "-//W3C//DTD SVG 1.1//EN" "http://www.w3.org/Graphics/SVG/1.1/DTD/svg11.dtd">
<svg version="1.1" id="Layer_1" xmlns="http://www.w3.org/2000/svg" xmlns:xlink="http://www.w3.org/1999/xlink" x="0px" y="0px"
	 width="1025px" height="1024px" viewBox="0 0 1025 1024" enable-background="new 0 0 1025 1024" xml:space="preserve">
<g><path d="M666.624 711.68c-7.168 0-12.288-2.048-15.36-8.192s-6.144-12.288-8.192-18.432c-2.048-5.12-5.12-9.216-8.192-13.312-10.24-10.24-23.552-9.216-31.744 3.072-5.12 8.192-7.168 18.432-10.24 28.672-2.048 9.216-3.072 18.432-7.168 26.624-1.024 1.024-1.024 3.072-3.072 3.072-3.072 0-3.072-2.048-3.072-4.096-4.096-13.312-5.12-27.648-7.168-41.984-3.072-23.552-4.096-46.080-12.288-68.608-2.048-4.096-4.096-9.216-7.168-13.312-8.192-10.24-17.408-8.192-22.528-6.144v0c-1.024 1.024-1.024 1.024-1.024 1.024-1.024 0-2.048 1.024-3.072 2.048v0 0l-1.024 1.024c-1.024 1.024-2.048 2.048-3.072 3.072v0c-2.048 3.072-4.096 6.144-5.12 9.216-3.072 6.144-4.096 12.288-6.144 18.432-6.144 31.744-7.168 63.488-10.24 94.208-1.024 14.336-3.072 27.648-6.144 39.936 0 2.048 0 4.096-2.048 4.096s-2.048-2.048-3.072-3.072c-2.048-7.168-4.096-14.336-6.144-21.504-4.096-19.456-6.144-38.912-11.264-58.368-2.048-8.192-5.12-17.408-10.24-24.576-8.192-10.24-20.48-10.24-28.672-1.024-3.072 3.072-5.12 7.168-7.168 10.24-6.144 15.36-8.192 30.72-11.264 47.104-1.024 9.216-3.072 17.408-6.144 26.624 0 1.024-1.024 3.072-3.072 3.072-1.024 0-2.048-2.048-2.048-3.072-2.048-3.072-3.072-6.144-4.096-9.216-3.072-10.24-6.144-21.504-13.312-30.72-6.144-9.216-15.36-14.336-26.624-14.336-13.312 0-25.6 0-38.912 0-2.048 0-4.096 0-5.12 1.024v18.432c1.024 1.024 3.072 1.024 5.12 1.024 12.288 0 24.576 0 36.864 0 6.144 0 11.264 3.072 14.336 8.192 3.072 7.168 5.12 14.336 8.192 22.528 2.048 6.144 5.12 13.312 9.216 19.456 9.216 13.312 25.6 13.312 34.816-1.024 6.144-11.264 8.192-24.576 11.264-36.864 2.048-12.288 4.096-25.6 7.168-36.864 1.024-2.048 1.024-3.072 2.048-5.12 0-1.024 1.024-3.072 2.048-2.048 2.048 0 2.048 1.024 3.072 2.048 2.048 7.168 4.096 15.36 5.12 22.528 5.12 20.48 7.168 40.96 13.312 60.416 1.024 4.096 2.048 8.192 4.096 12.288 3.072 9.216 9.216 16.384 19.456 19.456h4.096c8.192-2.048 13.312-8.192 16.384-16.384 5.12-15.36 7.168-30.72 9.216-46.080 3.072-29.696 3.072-58.368 8.192-88.064 1.024-7.168 3.072-15.36 5.12-22.528 1.024-1.024 1.024-3.072 3.072-3.072s3.072 2.048 3.072 4.096c4.096 10.24 6.144 22.528 8.192 33.792 3.072 22.528 4.096 46.080 9.216 68.608 1.024 6.144 3.072 12.288 6.144 17.408 8.192 15.36 23.552 12.288 31.744 5.12 6.144-7.168 10.24-15.36 12.288-24.576 3.072-11.264 6.144-22.528 9.216-33.792 0-1.024 0-4.096 3.072-4.096 2.048 0 3.072 2.048 3.072 4.096 4.096 7.168 6.144 15.36 11.264 21.504 7.168 11.264 16.384 17.408 30.72 17.408 14.336-1.024 28.672 0 43.008 0v-20.48c-14.336 0-28.672 0-41.984 0zM0 790.528c18.432 8.192 35.84 16.384 55.296 25.6v-168.96c-19.456 9.216-36.864 17.408-55.296 25.6v117.76zM802.816 224.256c-106.496-93.184-231.424-119.808-367.616-100.352-195.584 28.672-347.136 195.584-353.28 390.144-3.072 109.568 0 219.136 0 328.704 0 36.864 26.624 62.464 63.488 63.488 28.672 0 58.368 0 87.040 0 45.056-1.024 69.632-24.576 69.632-69.632 0-69.632 0-139.264 0-208.896 0-46.080-25.6-71.68-71.68-71.68-24.576 0-50.176 0-76.8 0-3.072-137.216 48.128-245.76 164.864-314.368 133.12-78.848 271.36-75.776 401.408 9.216 107.52 69.632 154.624 174.080 150.528 305.152-27.648 0-53.248-1.024-78.848 0-43.008 0-68.608 25.6-69.632 68.608 0 70.656 0 141.312 0 211.968 1.024 43.008 24.576 67.584 67.584 68.608 26.624 1.024 54.272 1.024 80.896 1.024 48.128-1.024 71.68-25.6 71.68-73.728 0-102.4 1.024-204.8 0-307.2-1.024-120.832-49.152-221.184-139.264-301.056zM1024 687.104c0-5.12-1.024-12.288-4.096-14.336-16.384-10.24-32.768-18.432-51.2-27.648v171.008c14.336-7.168 27.648-15.36 40.96-20.48 10.24-5.12 14.336-11.264 14.336-23.552-1.024-28.672 0-56.32 0-84.992z"></path></g>
</svg>
