<?xml version="1.0" encoding="utf-8"?>
<!-- Generator: Adobe Illustrator 22.1.0, SVG Export Plug-In . SVG Version: 6.00 Build 0)  -->
<svg version="1.1" id="Layer_1" xmlns="http://www.w3.org/2000/svg" xmlns:xlink="http://www.w3.org/1999/xlink" x="0px" y="0px"
	 viewBox="0 0 1024 1024" style="enable-background:new 0 0 1024 1024;" xml:space="preserve">
<style type="text/css">
	.st0{fill:#333333;stroke:#000000;stroke-width:4;stroke-miterlimit:10;}
</style>
<path class="st0" d="M790.1,51.6C677.2,34.5,555.2,94.4,515.9,201c-19.6-51-60.5-93.5-108-120.1c-79.7-44.6-158-45.2-243.3-9.3
	C98.7,99.4,47,172.4,19.6,235.8C-15,316,2.5,414.1,24,495.4c4,15.1,27.4,8.7,23.4-6.5c-35.9-135.6-29.9-285.3,93.6-376.1
	c58-42.6,157.9-57.6,222.5-28.2c67.6,30.9,134.9,91.4,140.1,170.3c1,15.7,22.9,15.5,24.3,0c12.7-144.6,190.2-221.9,314.6-163
	c132.2,62.6,187.9,240,144.4,374.5c-27.5,84.8-136.4,63.7-208,64.2c-40.7,0.3-81.4,0.7-122.1,0.3c-5.5,0-28,0-27.3,0.4
	c-6.4-4-22.9-52.5-26.7-62.4c-5.1-13.2-22.1-10.5-23.9,3.2c-8,63-24.5,124.2-37.5,186.2c-12.6-104.2-17.8-209.2-35.2-312.9
	c-2-12-20.8-11.2-23.4,0c-16.7,72.3-33.4,144.7-50.2,217c-7.5-33.6-14.9-67.2-22.4-100.8c-2.5-11.2-21.6-12-23.4,0
	c-2.6,16.7-6.8,62.1-18,70c-7.7,5.4-36.7-0.2-46.8-0.3c-44.1-0.3-88.2-0.6-132.3-0.9C141.5,530.4,65.8,520.8,68,593
	c1.1,37.9,36.2,76.2,58.6,104.2c32.5,40.6,71.2,75.6,112.1,107.5c84,65.7,177.7,116.6,268.4,172.1c3.8,2.3,8.5,2.1,12.3,0
	c164.4-89.7,297-206,413.7-352.4c9.7-12.1-7.4-29.4-17.2-17.2c-77.2,96.8-162.5,188.5-264.7,259.2c-32.6,22.6-103.8,87.3-144.4,81.8
	c-19-2.6-45.3-27-61.9-36.8c-25.5-15.1-51-30.3-76.1-46.1c-55.3-34.7-109.5-71.7-158.1-115.4c-29.2-26.2-175-165.8-78.9-195.5
	c36.3-11.2,95.5,0.6,133.5,0.9c37.7,0.2,75.4,0.5,113.1,0.7c5.5,0,10.1-3.8,11.7-8.9c2.9-9.2,5.5-18.4,8.1-27.5
	c7.5,33.7,15,67.3,22.5,101c2.6,11.6,20.8,11.5,23.4,0c15.9-68.8,31.8-137.5,47.7-206.3c13.7,108,18.6,217,36.6,324.4
	c2.5,14.8,22.3,9,23.9-3.2c9.2-73.3,30-144.2,43.4-216.7c8.3,18.2,19.6,32.5,41.8,36.2c55,8.9,119.4,0.1,175.1-0.3
	c51.1-0.4,119.1,11,161.8-23.5c37-29.9,44.4-82.9,48.3-127.3C1035.8,253.9,953.4,76.2,790.1,51.6z"/>
</svg>
