<?xml version="1.0" encoding="utf-8"?>
<!-- Generator: Adobe Illustrator 17.0.0, SVG Export Plug-In . SVG Version: 6.00 Build 0)  -->
<!DOCTYPE svg PUBLIC "-//W3C//DTD SVG 1.1//EN" "http://www.w3.org/Graphics/SVG/1.1/DTD/svg11.dtd">
<svg version="1.1" id="Layer_1" xmlns="http://www.w3.org/2000/svg" xmlns:xlink="http://www.w3.org/1999/xlink" x="0px" y="0px"
	 width="1025px" height="1024px" viewBox="0 0 1025 1024" enable-background="new 0 0 1025 1024" xml:space="preserve">
<g><path d="M506.88 982.016c-13.312-17.408-24.576-35.84-37.888-52.224-41.984-52.224-92.16-96.256-141.312-140.288-58.368-53.248-116.736-104.448-173.056-159.744-57.344-57.344-105.472-122.88-132.096-201.728-22.528-63.488-30.72-128-13.312-194.56 25.6-101.376 112.64-179.2 216.064-194.56 118.784-18.432 229.376 40.96 282.624 148.48 0 2.048 1.024 3.072 2.048 4.096 1.024 3.072 2.048 3.072 4.096 2.048 0-1.024 1.024-2.048 1.024-3.072 39.936-80.896 102.4-132.096 191.488-149.504 82.944-17.408 157.696 2.048 222.208 56.32 72.704 62.464 102.4 142.336 94.208 236.544-8.192 89.088-45.056 164.864-99.328 234.496-51.2 65.536-111.616 119.808-173.056 174.080-55.296 50.176-110.592 100.352-163.84 152.576-27.648 25.6-51.2 57.344-69.632 90.112-1.024 1.024-1.024 2.048-2.048 3.072-1.024 2.048-5.12-1.024-8.192-6.144z"></path></g>
</svg>
