<?xml version="1.0" encoding="utf-8"?>
<!-- Generator: Adobe Illustrator 17.0.0, SVG Export Plug-In . SVG Version: 6.00 Build 0)  -->
<!DOCTYPE svg PUBLIC "-//W3C//DTD SVG 1.1//EN" "http://www.w3.org/Graphics/SVG/1.1/DTD/svg11.dtd">
<svg version="1.1" id="Layer_1" xmlns="http://www.w3.org/2000/svg" xmlns:xlink="http://www.w3.org/1999/xlink" x="0px" y="0px"
	 width="1025px" height="1024px" viewBox="0 0 1025 1024" enable-background="new 0 0 1025 1024" xml:space="preserve">
<g><path d="M689.152 0h-354.304c-37.888 0-68.608 30.72-68.608 68.608v886.784c0 37.888 30.72 68.608 68.608 68.608h354.304c37.888 0 68.608-30.72 68.608-68.608v-886.784c0-37.888-30.72-68.608-68.608-68.608zM471.040 56.32c0-6.144 5.12-10.24 11.264-10.24h59.392c6.144 0 11.264 4.096 11.264 10.24v19.456c0 6.144-5.12 11.264-11.264 11.264h-59.392c-6.144 0-11.264-5.12-11.264-11.264v-19.456zM517.12 977.92c-24.576 0-45.056-19.456-45.056-44.032s20.48-45.056 45.056-45.056 44.032 19.456 44.032 45.056c0 24.576-19.456 44.032-44.032 44.032zM716.8 860.16h-409.6v-737.28h409.6v737.28z"></path></g>
</svg>
