<?xml version="1.0" encoding="utf-8"?>
<!-- Generator: Adobe Illustrator 17.0.0, SVG Export Plug-In . SVG Version: 6.00 Build 0)  -->
<!DOCTYPE svg PUBLIC "-//W3C//DTD SVG 1.1//EN" "http://www.w3.org/Graphics/SVG/1.1/DTD/svg11.dtd">
<svg version="1.1" id="Layer_1" xmlns="http://www.w3.org/2000/svg" xmlns:xlink="http://www.w3.org/1999/xlink" x="0px" y="0px"
	 width="1025px" height="1024px" viewBox="0 0 1025 1024" enable-background="new 0 0 1025 1024" xml:space="preserve">
<g><path d="M492.544 937.984c-19.456-25.6-38.912-52.224-56.32-77.824-63.488-89.088-120.832-181.248-167.936-279.552-22.528-48.128-44.032-98.304-54.272-150.528-19.456-99.328 4.096-188.416 70.656-263.168 64.512-73.728 147.456-106.496 244.736-102.4 135.168 5.12 252.928 107.52 280.576 240.64 11.264 54.272 8.192 107.52-9.216 160.768-33.792 106.496-86.016 202.752-146.432 294.912-43.008 66.56-90.112 130.048-135.168 194.56-1.024 1.024-2.048 3.072-4.096 4.096-2.048 3.072-12.288-7.168-22.528-21.504zM661.504 372.736c3.072-76.8-60.416-148.48-137.216-152.576-88.064-5.12-156.672 56.32-160.768 145.408-4.096 76.8 61.44 148.48 139.264 151.552 86.016 4.096 153.6-57.344 158.72-144.384z"></path></g>
</svg>
