<?xml version="1.0" encoding="utf-8"?>
<!-- Generator: Adobe Illustrator 17.0.0, SVG Export Plug-In . SVG Version: 6.00 Build 0)  -->
<!DOCTYPE svg PUBLIC "-//W3C//DTD SVG 1.1//EN" "http://www.w3.org/Graphics/SVG/1.1/DTD/svg11.dtd">
<svg version="1.1" id="Layer_1" xmlns="http://www.w3.org/2000/svg" xmlns:xlink="http://www.w3.org/1999/xlink" x="0px" y="0px"
	 width="1025px" height="1024px" viewBox="0 0 1025 1024" enable-background="new 0 0 1025 1024" xml:space="preserve">
<g><path d="M278.528 944.128c122.88 5.12 243.712 10.24 365.568 15.36v-702.464h-365.568v687.104zM517.12 537.6h16.384l-1.024 37.888h1.024l4.096-11.264 11.264-26.624h17.408l-18.432 36.864 17.408 47.104h-17.408l-11.264-34.816-4.096 6.144v27.648h-16.384l1.024-82.944zM470.016 536.576l16.384 1.024-1.024 69.632h21.504v13.312h-37.888l1.024-83.968zM439.296 536.576h16.384l-1.024 82.944h-16.384l1.024-82.944zM363.52 535.552h17.408l6.144 30.72c2.048 10.24 4.096 19.456 5.12 28.672v0c2.048-9.216 4.096-18.432 6.144-28.672l7.168-29.696h16.384l4.096 82.944h-14.336l-1.024-28.672c0-8.192 0-19.456 0-27.648v0c-2.048 8.192-4.096 18.432-6.144 25.6l-7.168 29.696-12.288-1.024-6.144-28.672c-1.024-7.168-4.096-17.408-5.12-26.624v0c0 9.216-1.024 19.456-2.048 27.648l-1.024 29.696-14.336-1.024 7.168-82.944zM747.52 277.504c-1.024-2.048-3.072-5.12-4.096-5.12-29.696-5.12-58.368-10.24-88.064-15.36v699.392c28.672-17.408 55.296-34.816 82.944-51.2 7.168-4.096 10.24-8.192 10.24-17.408-1.024-200.704-1.024-401.408-1.024-603.136 0-2.048 1.024-5.12 0-7.168zM693.248 141.312h-167.936c-8.192 7.168-13.312 15.36-20.48 19.456-23.552 15.36-49.152 19.456-76.8 15.36-24.576-4.096-28.672-15.36-13.312-35.84-26.624 0-52.224 0-76.8 1.024-3.072 0-6.144 3.072-7.168 6.144-16.384 28.672-32.768 57.344-48.128 86.016-2.048 4.096-4.096 7.168-7.168 12.288 3.072 0 5.12 1.024 7.168 1.024 118.784 0 237.568 0 356.352 0 6.144 0 9.216-3.072 11.264-8.192 13.312-29.696 26.624-60.416 39.936-90.112 1.024-2.048 2.048-5.12 3.072-7.168zM536.576 201.728c-13.312 8.192-27.648 16.384-43.008 21.504-23.552 8.192-49.152 11.264-73.728 4.096-14.336-4.096-18.432-9.216-18.432-24.576v-31.744c36.864 25.6 107.52 7.168 124.928-23.552 5.12 13.312 12.288 24.576 15.36 37.888 2.048 4.096-2.048 13.312-5.12 16.384zM427.008 130.048c5.12 0 11.264-1.024 17.408-2.048 21.504-6.144 43.008-9.216 64.512-1.024 5.12 2.048 10.24 3.072 16.384 3.072 54.272 1.024 109.568 1.024 164.864 1.024h9.216c1.024-2.048 2.048-3.072 2.048-3.072v-38.912c0-21.504-3.072-25.6-24.576-25.6h-314.368c-3.072 0-7.168 0-11.264 1.024-8.192 1.024-13.312 6.144-13.312 13.312-1.024 17.408 0 34.816 0 52.224 4.096 0 7.168 0 11.264 0 25.6 1.024 51.2 1.024 77.824 0zM657.408 247.808c29.696 5.12 59.392 10.24 91.136 15.36-15.36-39.936-29.696-79.872-45.056-120.832-15.36 34.816-30.72 67.584-45.056 101.376-1.024 1.024-1.024 2.048-1.024 4.096z"></path></g>
</svg>
