<?xml version="1.0" encoding="utf-8"?>
<!-- Generator: Adobe Illustrator 17.0.0, SVG Export Plug-In . SVG Version: 6.00 Build 0)  -->
<!DOCTYPE svg PUBLIC "-//W3C//DTD SVG 1.1//EN" "http://www.w3.org/Graphics/SVG/1.1/DTD/svg11.dtd">
<svg version="1.1" id="Layer_1" xmlns="http://www.w3.org/2000/svg" xmlns:xlink="http://www.w3.org/1999/xlink" x="0px" y="0px"
	 width="1025px" height="1024px" viewBox="0 0 1025 1024" enable-background="new 0 0 1025 1024" xml:space="preserve">
<g><path d="M841.728 157.696l-117.76 109.568h-423.936l-117.76-109.568s58.368-81.92 154.624-92.16c95.232-10.24 128 47.104 175.104 49.152 47.104-2.048 79.872-59.392 174.080-49.152 97.28 10.24 155.648 92.16 155.648 92.16zM528.384 684.032v81.92c12.288-2.048 22.528-6.144 30.72-14.336 7.168-8.192 11.264-17.408 11.264-27.648 0-9.216-3.072-17.408-10.24-24.576-6.144-6.144-17.408-12.288-31.744-15.36zM458.752 577.536c0 8.192 3.072 15.36 8.192 21.504 6.144 6.144 13.312 11.264 24.576 15.36v-73.728c-9.216 3.072-17.408 8.192-23.552 14.336-6.144 7.168-9.216 14.336-9.216 22.528zM913.408 862.208s-26.624 98.304-143.36 98.304h-516.096c-117.76 0-143.36-98.304-143.36-98.304-76.8-339.968 157.696-524.288 157.696-524.288h487.424s234.496 184.32 157.696 524.288zM631.808 716.8c0-23.552-7.168-41.984-21.504-56.32s-41.984-26.624-81.92-35.84v-82.944c16.384 6.144 25.6 17.408 29.696 33.792l63.488-7.168c-4.096-20.48-14.336-37.888-29.696-50.176-15.36-13.312-36.864-20.48-63.488-23.552v-20.48h-36.864v20.48c-28.672 3.072-51.2 12.288-68.608 27.648s-26.624 34.816-26.624 58.368c0 22.528 8.192 41.984 23.552 58.368s38.912 27.648 71.68 35.84v89.088c-8.192-4.096-17.408-10.24-24.576-18.432s-12.288-17.408-14.336-28.672l-65.536 5.12c4.096 28.672 16.384 50.176 33.792 65.536 18.432 14.336 41.984 23.552 70.656 26.624v38.912h36.864v-39.936c32.768-4.096 58.368-14.336 75.776-31.744 18.432-18.432 27.648-39.936 27.648-64.512z"></path></g>
</svg>
