<?xml version="1.0" encoding="utf-8"?>
<!-- Generator: Adobe Illustrator 17.0.0, SVG Export Plug-In . SVG Version: 6.00 Build 0)  -->
<!DOCTYPE svg PUBLIC "-//W3C//DTD SVG 1.1//EN" "http://www.w3.org/Graphics/SVG/1.1/DTD/svg11.dtd">
<svg version="1.1" id="Layer_1" xmlns="http://www.w3.org/2000/svg" xmlns:xlink="http://www.w3.org/1999/xlink" x="0px" y="0px"
	 width="1025px" height="1024px" viewBox="0 0 1025 1024" enable-background="new 0 0 1025 1024" xml:space="preserve">
<g><path d="M64.512 227.328v24.576c0 38.912 30.72 70.656 69.632 70.656h755.712c38.912 0 69.632-31.744 69.632-70.656v-24.576c0-38.912-30.72-70.656-69.632-70.656h-755.712c-38.912 0-69.632 31.744-69.632 70.656zM134.144 594.944h755.712c38.912 0 69.632-31.744 69.632-70.656v-24.576c0-38.912-30.72-70.656-69.632-70.656h-755.712c-38.912 0-69.632 31.744-69.632 70.656v24.576c0 38.912 30.72 70.656 69.632 70.656zM134.144 867.328h755.712c38.912 0 69.632-30.72 69.632-69.632v-25.6c0-38.912-30.72-69.632-69.632-69.632h-755.712c-38.912 0-69.632 30.72-69.632 69.632v25.6c0 38.912 30.72 69.632 69.632 69.632z"></path></g>
</svg>
