<?xml version="1.0" encoding="utf-8"?>
<!-- Generator: Adobe Illustrator 22.1.0, SVG Export Plug-In . SVG Version: 6.00 Build 0)  -->
<svg version="1.1" id="Layer_1_copy" xmlns="http://www.w3.org/2000/svg" xmlns:xlink="http://www.w3.org/1999/xlink" x="0px"
	 y="0px" viewBox="0 0 1024 1024" style="enable-background:new 0 0 1024 1024;" xml:space="preserve">
<style type="text/css">
	.st0{stroke:#000000;stroke-width:4;stroke-miterlimit:10;}
</style>
<g>
	<path class="st0" d="M643.1,179.3c34.2,23.4,51.3,55.5,51.3,96.3c0,41.4-18.5,77.3-55.4,107.5c-36.9,30.3-83.9,51.8-140.8,64.4
		c66,2.4,120.9,18.6,164.7,48.6c43.8,30,65.7,71.1,65.7,123.3c0,38.4-12,71.7-36,99.9c-24,28.2-56.1,49.8-96.3,64.8
		c-40.2,15-83.4,22.5-129.6,22.5c-51.6,0-94.5-9.9-128.7-29.7c-15-9-26.3-19.5-33.8-31.5c-7.5-12-11.3-24.6-11.3-37.8
		c0-18.6,6.3-33.8,18.9-45.5c12.6-11.7,29.4-17.5,50.4-17.5c20.4,0,37.4,5.7,50.9,17.1c13.5,11.4,20.3,26.7,20.3,45.9
		c0,16.2-5.1,29.9-15.3,41c-10.2,11.1-23.1,18.8-38.7,23c5.4,4.2,14.5,8.1,27.5,11.7c12.9,3.6,27.1,5.4,42.8,5.4
		c46.2,0,81.9-15.9,107.1-47.7c25.2-31.8,37.8-72.9,37.8-123.3c0-46.2-10.2-83.7-30.6-112.5c-20.4-28.8-48-44.7-82.8-47.7
		c-1.8,1.2-5.4,3.3-10.8,6.3c-5.4,3-10.3,5.3-14.8,6.8c-4.5,1.5-8.9,2.3-13.1,2.3c-5.4,0-9.8-1.2-13-3.6c-3.3-2.4-5-5.7-5-9.9
		c0-10.8,8.7-16.2,26.1-16.2c5.4,0,9.9,0.3,13.5,0.9c3.6,0.6,6.9,1.2,9.9,1.8c56.4-26.4,84.6-77.1,84.6-152.1
		c0-41.4-8.1-73.5-24.3-96.3c-16.2-22.8-38.7-34.2-67.5-34.2c-15.6,0-30.2,2.7-43.7,8.1c-13.5,5.4-23.8,13.2-31,23.4
		c18,5.4,32.1,14.3,42.3,26.5c10.2,12.3,15.3,26.3,15.3,41.9c0,19.8-6.8,35.7-20.3,47.7c-13.5,12-30.1,18-50,18
		c-19.8,0-35.5-6.4-47.3-19.4c-11.7-12.9-17.5-28.6-17.5-47.3c0-15,4-29.3,12.1-42.8s19.4-25,33.8-34.6
		c16.8-13.2,37.9-23.2,63.5-30.2c25.5-6.9,53.2-10.3,83.3-10.3C563.5,144.2,608.9,155.9,643.1,179.3z"/>
</g>
</svg>
