<?xml version="1.0" encoding="utf-8"?>
<!-- Generator: Adobe Illustrator 22.1.0, SVG Export Plug-In . SVG Version: 6.00 Build 0)  -->
<svg version="1.1" id="Layer_1_copy" xmlns="http://www.w3.org/2000/svg" xmlns:xlink="http://www.w3.org/1999/xlink" x="0px"
	 y="0px" viewBox="0 0 1024 1024" style="enable-background:new 0 0 1024 1024;" xml:space="preserve">
<style type="text/css">
	.st0{stroke:#000000;stroke-width:4;stroke-miterlimit:10;}
</style>
<g>
	<path class="st0" d="M663.3,490.2c21.6,18.9,40.2,41,55.8,66.1c15.6,25.2,23.4,51.9,23.4,80.1c0,33-10.2,62.4-30.6,88.2
		c-20.4,25.8-48.5,45.9-84.2,60.3c-35.7,14.4-75.8,21.6-120.2,21.6c-40.2,0-77.1-5.8-110.7-17.5c-33.6-11.7-60.6-29.3-81-52.7
		c-20.4-23.4-30.6-51.3-30.6-83.7c0-39,14.2-72.9,42.8-101.7c28.5-28.8,67.1-53.1,115.7-72.9c-40.8-31.8-72.3-61.9-94.5-90.5
		c-22.2-28.5-33.3-60.8-33.3-96.8c0-31.2,9.1-57.9,27.5-80.1c18.3-22.2,42.9-38.8,73.8-50c30.9-11.1,64.9-16.6,102.1-16.6
		c36.6,0,69.1,5.3,97.7,15.8c28.5,10.5,50.8,25.2,67.1,44.1c16.2,18.9,24.3,41,24.3,66.2c0,29.4-11.4,55.8-34.2,79.2
		c-22.8,23.4-56.7,45.9-101.7,67.5C611.4,446.9,641.7,471.3,663.3,490.2z M589.1,763.4c18.9-18,28.4-41.4,28.4-70.2
		c0-27-7.2-51.9-21.6-74.7c-14.4-22.8-31.4-42.8-50.8-59.9c-19.5-17.1-48.1-40-85.9-68.8c-21.6,18-37.4,39.8-47.3,65.3
		c-9.9,25.5-14.9,52.7-14.9,81.5c0,45.6,9.1,82.7,27.5,111.1c18.3,28.5,47.5,42.8,87.8,42.8C544.5,790.4,570.2,781.4,589.1,763.4z
		 M455.4,180.6c-13.8,13.5-20.7,31.7-20.7,54.5c0,30,10.6,58,31.9,84.2c21.3,26.1,51.8,54.8,91.4,86c15.6-16.2,27.1-35.8,34.7-59
		c7.5-23.1,11.3-46,11.3-68.9c0-36.6-8.1-65.3-24.3-85.9c-16.2-20.7-38.7-31.1-67.5-31.1C488.1,160.4,469.2,167.1,455.4,180.6z"/>
</g>
</svg>
