<?xml version="1.0" encoding="utf-8"?>
<!-- Generator: Adobe Illustrator 22.1.0, SVG Export Plug-In . SVG Version: 6.00 Build 0)  -->
<svg version="1.1" id="Layer_1_copy" xmlns="http://www.w3.org/2000/svg" xmlns:xlink="http://www.w3.org/1999/xlink" x="0px"
	 y="0px" viewBox="0 0 1024 1024" style="enable-background:new 0 0 1024 1024;" xml:space="preserve">
<style type="text/css">
	.st0{stroke:#000000;stroke-width:4;stroke-miterlimit:10;}
</style>
<g>
	<path class="st0" d="M757.4,175.7c-46.8,68.4-83.1,126.3-108.9,173.7c-25.8,47.4-45.9,97.2-60.3,149.4s-21.3,110.4-20.7,174.6
		c0,10.2,0.6,23.1,1.8,38.7c1.2,14.4,1.8,24.9,1.8,31.5c0,18.6-5.6,33.8-16.7,45.5c-11.1,11.7-27.8,17.5-50,17.5
		c-21.6,0-37.8-6.3-48.6-18.9c-10.8-12.6-16.2-28.5-16.2-47.7c0-50.4,11.7-103,35.1-158s51.8-106.9,85.1-156.2
		c33.3-49.2,73.9-104.4,121.9-165.6H423.5c-24.6,0-42.8,5.3-54.4,15.8c-11.7,10.5-19.1,28.7-22.1,54.5h-20.7
		c1.8-19.2,2.7-43.5,2.7-72.9c0-29.4-2.1-63-6.3-100.8c43.2,1.8,116.4,2.7,219.6,2.7c85.2,0,156.9-0.9,215.1-2.7V175.7z"/>
</g>
</svg>
