<?xml version="1.0" encoding="utf-8"?>
<!-- Generator: Adobe Illustrator 22.1.0, SVG Export Plug-In . SVG Version: 6.00 Build 0)  -->
<svg version="1.1" id="Layer_1" xmlns="http://www.w3.org/2000/svg" xmlns:xlink="http://www.w3.org/1999/xlink" x="0px" y="0px"
	 viewBox="0 0 1024 1024" style="enable-background:new 0 0 1024 1024;" xml:space="preserve">
<style type="text/css">
	.st0{stroke:#000000;stroke-width:4;stroke-miterlimit:10;}
</style>
<g>
	<path class="st0" d="M593,698.7c0,19.2,1.9,33.6,5.8,43.2c3.9,9.6,10.4,16.2,19.4,19.8c9,3.6,22.2,5.7,39.6,6.3v18.9l-20.7-0.9
		c-55.8-1.8-91.5-2.7-107.1-2.7c-16.8,0-59.4,0.9-127.8,2.7l-27,0.9V768c23.4-0.6,41.2-3.2,53.5-7.7c12.3-4.5,21.1-12.7,26.6-24.8
		c5.4-12,8.1-29.7,8.1-53.1V284.7c0-21-2.9-36.3-8.6-45.9c-5.7-9.6-15.3-16-28.8-19.4c-13.5-3.3-34.1-4.9-61.6-4.9v-18.9
		c53.4-6.6,97.8-14.5,133.2-23.9c35.4-9.3,67.2-19.6,95.4-31.1V698.7z"/>
</g>
</svg>
