<?xml version="1.0" encoding="utf-8"?>
<!-- Generator: Adobe Illustrator 22.1.0, SVG Export Plug-In . SVG Version: 6.00 Build 0)  -->
<svg version="1.1" id="Layer_1_copy" xmlns="http://www.w3.org/2000/svg" xmlns:xlink="http://www.w3.org/1999/xlink" x="0px"
	 y="0px" viewBox="0 0 1024 1024" style="enable-background:new 0 0 1024 1024;" xml:space="preserve">
<style type="text/css">
	.st0{stroke:#000000;stroke-width:4;stroke-miterlimit:10;}
</style>
<g>
	<path class="st0" d="M681.3,221.6c40.2,51.6,60.3,126.3,60.3,224.1c0,72-11.7,135.3-35.1,189.9c-23.4,54.6-55.8,96.8-97.2,126.5
		s-88.8,44.5-142.2,44.5c-46.2,0-84.3-8.7-114.3-26.1c-14.4-7.8-26.3-18.1-35.5-31c-9.3-12.9-14-27.1-14-42.8
		c0-19.8,6.8-36,20.3-48.6c13.5-12.6,31-18.9,52.6-18.9c20.4,0,36.7,5.8,49.1,17.5c12.3,11.7,18.4,27.5,18.4,47.3
		c0,14.4-4.8,28.1-14.4,41c-9.6,12.9-23.4,22-41.4,27.4c8.4,6,18.9,10.5,31.5,13.5c12.6,3,24.9,4.5,36.9,4.5
		c43.8,0,79.7-25,107.5-75.1c27.9-50.1,41.9-134.8,41.9-254.3v-12.6C584.1,522.8,535.8,560,460.8,560c-31.8,0-61.5-7.5-89.1-22.5
		c-27.6-15-49.9-37.6-67-68c-17.1-30.3-25.6-66.7-25.6-109.3c0-46.2,10-85.5,30.1-117.9c20.1-32.4,47.5-56.8,82.4-73.3
		c34.8-16.5,74.4-24.8,118.8-24.8C584.1,144.2,641.1,170,681.3,221.6z M559.8,504.2c21.6-21.6,36.6-57,45-106.2
		c-6.6-157.2-39.6-235.8-99-235.8c-27.6,0-49.7,15.8-66.1,47.3c-16.5,31.5-24.8,81.2-24.8,148.9c0,60.6,7,105.5,21.1,134.6
		c14.1,29.1,33.8,43.6,59,43.6C516.6,536.6,538.2,525.8,559.8,504.2z"/>
</g>
</svg>
