<?xml version="1.0" encoding="utf-8"?>
<!-- Generator: Adobe Illustrator 22.1.0, SVG Export Plug-In . SVG Version: 6.00 Build 0)  -->
<svg version="1.1" id="Layer_1_copy" xmlns="http://www.w3.org/2000/svg" xmlns:xlink="http://www.w3.org/1999/xlink" x="0px"
	 y="0px" viewBox="0 0 1024 1024" style="enable-background:new 0 0 1024 1024;" xml:space="preserve">
<style type="text/css">
	.st0{stroke:#000000;stroke-width:4;stroke-miterlimit:10;}
</style>
<g>
	<path class="st0" d="M654.3,413.3c28.2,15,50.8,37.5,68,67.5c17.1,30,25.6,66.6,25.6,109.8c0,46.2-10.1,85.5-30.1,117.9
		c-20.1,32.4-47.4,56.9-81.9,73.3c-34.5,16.5-73.3,24.8-116.5,24.8c-77.4,0-135.8-25.3-175-76c-39.3-50.7-59-124.9-59-222.8
		c0-73.8,11.5-138,34.6-192.6c23.1-54.6,55.6-96.8,97.6-126.5c42-29.7,90.9-44.5,146.7-44.5c45,0,81.3,8.7,108.9,26.1
		c15,9,27,19.8,36,32.4c9,12.6,13.5,26.4,13.5,41.4c0,19.2-6.8,35.3-20.3,48.2c-13.5,12.9-30.8,19.3-51.8,19.3
		c-20.4,0-36.9-5.8-49.5-17.5c-12.6-11.7-18.9-26.8-18.9-45.5c0-16.2,4.8-30.4,14.4-42.8c9.6-12.3,23.4-21.4,41.4-27.5
		c-8.4-6-18.9-10.5-31.5-13.5c-12.6-3-24.6-4.5-36-4.5c-45,0-81,25.1-108,75.2c-27,50.1-40.8,136.7-41.4,259.7
		c11.4-36.6,29.7-63.1,54.9-79.7c25.2-16.5,53.7-24.8,85.5-24.8C595.2,390.8,626.1,398.3,654.3,413.3z M586.8,741.3
		c16.8-31.5,25.2-80.8,25.2-148c0-61.2-7.2-106.3-21.6-135.5c-14.4-29.1-34.2-43.6-59.4-43.6c-21.6,0-43.2,10.2-64.8,30.6
		c-21.6,20.4-36.3,54-44.1,100.8c3,88.8,13.6,151.5,32,188.1c18.3,36.6,41,54.9,68,54.9C548.4,788.6,570,772.8,586.8,741.3z"/>
</g>
</svg>
