<?xml version="1.0" encoding="utf-8"?>
<!-- Generator: Adobe Illustrator 22.1.0, SVG Export Plug-In . SVG Version: 6.00 Build 0)  -->
<svg version="1.1" id="Layer_1_copy" xmlns="http://www.w3.org/2000/svg" xmlns:xlink="http://www.w3.org/1999/xlink" x="0px"
	 y="0px" viewBox="0 0 1024 1024" style="enable-background:new 0 0 1024 1024;" xml:space="preserve">
<style type="text/css">
	.st0{stroke:#000000;stroke-width:4;stroke-miterlimit:10;}
</style>
<g>
	<path class="st0" d="M669.2,173.9c0,26.4,2.1,55.2,6.3,86.4H375.8l-13.5,187.2c37.8-30,86.7-45,146.7-45c40.8,0,77,7.6,108.5,23
		c31.5,15.3,56.3,37.3,74.3,66.1s27,63,27,102.6c0,43.2-10.7,80.9-32,112.9c-21.3,32.1-50.3,56.7-86.8,73.8
		c-36.6,17.1-77.7,25.6-123.3,25.6c-50.4,0-90.9-10.5-121.5-31.5c-15.6-10.2-27.6-22-36-35.5c-8.4-13.5-12.6-27.7-12.6-42.8
		c0-19.8,6.4-36.1,19.4-49c12.9-12.9,29.8-19.4,50.9-19.4c19.2,0,34.8,5.6,46.8,16.7c12,11.1,18,26.9,18,47.3
		c0,18-5.1,33.3-15.3,45.9c-10.2,12.6-24.3,22.2-42.3,28.8c7.2,6.6,17.6,12,31.1,16.2c13.5,4.2,28,6.3,43.6,6.3
		c38.4,0,68.7-13.8,90.9-41.4c22.2-27.6,33.3-76.8,33.3-147.6c0-54.6-10.3-97.3-31.1-128.3c-20.7-30.9-48.5-46.4-83.2-46.4
		c-40.8,0-77.1,14.1-108.9,42.3l-16.2-3.6l25.2-311.4c12,2.4,25.5,3.6,40.5,3.6h178.2c21,0,36.6-3.3,46.8-9.9
		c10.2-6.6,16.8-18.3,19.8-35.1h18C670.1,126.8,669.2,147.5,669.2,173.9z"/>
</g>
</svg>
