<?xml version="1.0" encoding="utf-8"?>
<!-- Generator: Adobe Illustrator 22.1.0, SVG Export Plug-In . SVG Version: 6.00 Build 0)  -->
<svg version="1.1" id="Layer_1_copy" xmlns="http://www.w3.org/2000/svg" xmlns:xlink="http://www.w3.org/1999/xlink" x="0px"
	 y="0px" viewBox="0 0 1024 1024" style="enable-background:new 0 0 1024 1024;" xml:space="preserve">
<style type="text/css">
	.st0{stroke:#000000;stroke-width:4;stroke-miterlimit:10;}
</style>
<g>
	<path class="st0" d="M638.1,654.5v44.1c0,22.8,1.5,39.3,4.5,49.5c3,10.2,8.7,17.1,17.1,20.7c8.4,3.6,21.9,6,40.5,7.2v18
		c-28.8-1.8-72.6-2.7-131.4-2.7c-52.2,0-93.6,0.9-124.2,2.7v-18c23.4-1.2,40.5-3.6,51.3-7.2c10.8-3.6,18.3-10.6,22.5-21.2
		c4.2-10.5,6.3-26.8,6.3-49v-44.1H271.8v-18.9l351.9-491.4h14.4v423h97.2v87.3H638.1z M524.7,567.2V309.8L341.1,567.2H524.7z"/>
</g>
</svg>
