<?xml version="1.0" encoding="utf-8"?>
<!-- Generator: Adobe Illustrator 22.1.0, SVG Export Plug-In . SVG Version: 6.00 Build 0)  -->
<svg version="1.1" id="Layer_1_copy" xmlns="http://www.w3.org/2000/svg" xmlns:xlink="http://www.w3.org/1999/xlink" x="0px"
	 y="0px" viewBox="0 0 1024 1024" style="enable-background:new 0 0 1024 1024;" xml:space="preserve">
<style type="text/css">
	.st0{stroke:#000000;stroke-width:4;stroke-miterlimit:10;}
</style>
<g>
	<path class="st0" d="M647.6,184.7c36.6,27,54.9,65.1,54.9,114.3c0,29.4-7.2,58-21.6,86c-14.4,27.9-33,54.9-55.8,81
		c-22.8,26.1-54.9,59.8-96.3,101.3c-9.6,10.2-26.4,27.6-50.4,52.2c-24,24.6-45.9,48.3-65.7,71.1h219.6c16.8,0,30.4-4.6,40.9-14
		c10.5-9.3,17.2-25.3,20.3-48.2h20.7c-1.8,13.2-2.7,30.3-2.7,51.3c0,36,2.1,74.1,6.3,114.3H470.3l-121.5-0.9
		c-21,0-36.6,0.3-46.8,0.9v-18c75-66,137.8-139,188.5-219.2c50.7-80.1,76-162.1,76-246.1c0-52.2-9.6-89.6-28.8-112.1
		c-19.2-22.5-43.5-33.8-72.9-33.8c-15.6,0-30.5,3.2-44.5,9.5c-14.1,6.3-24.2,14.9-30.1,25.7c18,4.2,32.1,12.6,42.3,25.2
		c10.2,12.6,15.3,27,15.3,43.2c0,19.8-6.8,35.7-20.3,47.7c-13.5,12-29.9,18-49,18c-20.4,0-36.5-6.4-48.1-19.3
		c-11.7-12.9-17.6-28.4-17.6-46.4c0-27.6,15.6-53.7,46.8-78.3c17.4-15,38.7-26.4,63.9-34.2c25.2-7.8,52.8-11.7,82.8-11.7
		C563.9,144.2,610.9,157.7,647.6,184.7z"/>
</g>
</svg>
