<?xml version="1.0" encoding="utf-8"?>
<!-- Generator: Adobe Illustrator 17.0.0, SVG Export Plug-In . SVG Version: 6.00 Build 0)  -->
<!DOCTYPE svg PUBLIC "-//W3C//DTD SVG 1.1//EN" "http://www.w3.org/Graphics/SVG/1.1/DTD/svg11.dtd">
<svg version="1.1" id="Layer_1" xmlns="http://www.w3.org/2000/svg" xmlns:xlink="http://www.w3.org/1999/xlink" x="0px" y="0px"
	 width="1025px" height="1024px" viewBox="0 0 1025 1024" enable-background="new 0 0 1025 1024" xml:space="preserve">
<g><path d="M847.872 63.488h-671.744c-30.72 0-56.32 25.6-56.32 56.32v784.384c0 30.72 25.6 56.32 56.32 56.32h671.744c30.72 0 56.32-25.6 56.32-56.32v-784.384c0-30.72-25.6-56.32-56.32-56.32zM316.416 232.448h223.232c15.36 0 28.672 12.288 28.672 27.648s-13.312 27.648-28.672 27.648h-223.232c-15.36 0-28.672-12.288-28.672-27.648s13.312-27.648 28.672-27.648zM708.608 791.552h-392.192c-15.36 0-28.672-12.288-28.672-27.648s13.312-27.648 28.672-27.648h391.168c16.384 0 28.672 12.288 28.672 27.648s-13.312 27.648-27.648 27.648zM708.608 623.616h-392.192c-15.36 0-28.672-12.288-28.672-27.648s13.312-27.648 28.672-27.648h391.168c16.384 0 28.672 12.288 28.672 27.648s-13.312 27.648-27.648 27.648zM708.608 455.68h-392.192c-15.36 0-28.672-12.288-28.672-27.648s13.312-27.648 28.672-27.648h391.168c16.384 0 28.672 12.288 28.672 27.648s-13.312 27.648-27.648 27.648z"></path></g>
</svg>
