<?xml version="1.0" encoding="utf-8"?>
<!-- Generator: Adobe Illustrator 17.0.0, SVG Export Plug-In . SVG Version: 6.00 Build 0)  -->
<!DOCTYPE svg PUBLIC "-//W3C//DTD SVG 1.1//EN" "http://www.w3.org/Graphics/SVG/1.1/DTD/svg11.dtd">
<svg version="1.1" id="Layer_1" xmlns="http://www.w3.org/2000/svg" xmlns:xlink="http://www.w3.org/1999/xlink" x="0px" y="0px"
	 width="1025px" height="1024px" viewBox="0 0 1025 1024" enable-background="new 0 0 1025 1024" xml:space="preserve">
<g><path d="M838.656 242.688l29.696-38.912c40.96-54.272 32.768-132.096-18.432-175.104l-2.048-1.024c-50.176-43.008-123.904-34.816-164.864 19.456l-29.696 38.912 185.344 156.672zM658.432 571.392c1.024 9.216 6.144 18.432 13.312 24.576 15.36 13.312 37.888 10.24 50.176-5.12l202.752-269.312c12.288-16.384 9.216-39.936-6.144-52.224s-37.888-9.216-49.152 6.144l-20.48 26.624-33.792-28.672-184.32-156.672-474.112 625.664 185.344 156.672 429.056-567.296 33.792 28.672-138.24 183.296c-6.144 8.192-9.216 18.432-8.192 27.648zM311.296 927.744l-174.080-147.456c-3.072 10.24-5.12 19.456-5.12 19.456l-39.936 202.752c-2.048 14.336 11.264 26.624 24.576 19.456l178.176-84.992c0 0 7.168-4.096 16.384-9.216z"></path></g>
</svg>
