<?xml version="1.0" encoding="utf-8"?>
<!-- Generator: Adobe Illustrator 17.0.0, SVG Export Plug-In . SVG Version: 6.00 Build 0)  -->
<!DOCTYPE svg PUBLIC "-//W3C//DTD SVG 1.1//EN" "http://www.w3.org/Graphics/SVG/1.1/DTD/svg11.dtd">
<svg version="1.1" id="Layer_1" xmlns="http://www.w3.org/2000/svg" xmlns:xlink="http://www.w3.org/1999/xlink" x="0px" y="0px"
	 width="1025px" height="1024px" viewBox="0 0 1025 1024" enable-background="new 0 0 1025 1024" xml:space="preserve">
<g><path d="M885.76 63.488h-747.52c-40.96 0-73.728 33.792-73.728 74.752v747.52c0 40.96 32.768 74.752 73.728 74.752h747.52c40.96 0 74.752-33.792 74.752-74.752v-747.52c0-40.96-33.792-74.752-74.752-74.752zM821.248 541.696c-1.024 9.216-2.048 19.456-5.12 30.72h-243.712v243.712c-11.264 3.072-21.504 4.096-31.744 5.12s-20.48 1.024-30.72 1.024c-9.216 0-18.432 0-27.648-1.024s-19.456-2.048-30.72-5.12v-243.712h-243.712c-2.048-11.264-4.096-21.504-5.12-31.744s-1.024-20.48-1.024-30.72c0-9.216 0-18.432 1.024-27.648s3.072-19.456 5.12-30.72h243.712v-243.712c11.264-2.048 21.504-4.096 31.744-5.12s20.48-1.024 30.72-1.024c9.216 0 18.432 0 27.648 1.024s19.456 3.072 30.72 5.12v243.712h243.712c3.072 11.264 4.096 21.504 5.12 31.744s1.024 20.48 1.024 30.72c0 9.216 0 18.432-1.024 27.648z"></path></g>
</svg>
