<?xml version="1.0" encoding="utf-8"?>
<!-- Generator: Adobe Illustrator 22.1.0, SVG Export Plug-In . SVG Version: 6.00 Build 0)  -->
<svg version="1.1" id="Layer_1" xmlns="http://www.w3.org/2000/svg" xmlns:xlink="http://www.w3.org/1999/xlink" x="0px" y="0px"
	 viewBox="0 0 1024 1024" style="enable-background:new 0 0 1024 1024;" xml:space="preserve">
<style type="text/css">
	.st0{fill:#333333;stroke:#000000;stroke-width:4;stroke-miterlimit:10;}
</style>
<g>
	<path class="st0" d="M875.3,629c0.9-142.8,21.3-286.7-2.9-428.7c-9.7-57-29.6-53.1-85.3-53.9c-54.4-0.8-108.8-0.5-163.2-2.3
		c-0.5,0-0.9,0.2-1.3,0.2c-8.4-5-17.1-10.1-25.7-15.7c-28.1-18.4-13-19.9-8.9-49.7c2.5-18,1.4-37.4-9.7-52.6
		C553-8.3,485.7-6.1,454.3,17.5c-36.2,27.2-11.1,55.5-19.6,88.2c-3.8,14.6-34.8,23.9-52.4,37c-0.7-0.1-1.2-0.4-1.9-0.3
		c-60.5,1.2-145.7-12-203.1,11.3c-25.8,10.5-30.1,26.3-32.3,52.4c-3.9,45.6-2.2,92.8-3.2,138.5c-2.6,122.1-2,244.3-0.6,366.4
		c0.5,46.9,1.2,93.8,1.9,140.6c0.6,36.3-6.4,83.4,10,117.1c32.4,66.7,115,53.9,175.9,54.8c107.5,1.5,214.8-4.5,322.4-3.6
		c42.7,0.4,85-4.2,127.6-3.9c35.1,0.2,60.5,3.3,81.3-29.5c26.3-41.4,14.3-105.5,14.7-151.8C875.7,766.2,874.9,697.6,875.3,629z
		 M454.9,128.1c4.8-2.3,6.3-8.3,5.3-13c-7-33.4-18.5-70.1,23.7-86.5c25.4-9.8,69.4-7,80.9,23.4c7,18.4-4.4,44.1-12.3,60.3
		c-2.1,4.3-2.3,10.6,1.8,14c26.2,21.9,65.7,34.1,86.1,61.5c8.3,11.2,15.2,26.1,11.4,41.7c-10.5,43.4-56.6,36.8-92.2,37.2
		c-43.9,0.5-87.9,1.5-131.9,1.5c-11.2,0-30.6,3-41-1.1c-24.3-9.7-17.1-11.9-20.3-31.9c-1.8-10.8-0.1-22.6-0.3-33.5
		C370.9,163.9,424.2,142.7,454.9,128.1z M677.7,239.7c21.4,0.8,43.1,2.9,64.3,2.6c7.5-0.1,24.4,2.6,23.1,0.7
		c3.2,4.8,0.4,22.9,0.5,28.4c0.6,42.2,0.8,84.5,1,126.7c0.7,120.6,1.1,241.2,0.7,361.9c-0.1,42.4-0.1,84.8-1.2,127.2
		c-0.1,4.1,2,24.9-1.1,27.9c-10.6,10.2-69.8,0.5-86.1,1.9c-48.2,4-98.1,7.9-146.5,6.6c-54.9-1.5-108.3,2.5-163.6,2.9
		c-34,0.2-95.2,9-109.3-24c-8.5-19.8-5.8-51.2-7.1-72.5c-6.2-109.2-1.4-218.5-4.7-327.8c-0.5-49.5,1.3-98.7,1.8-148.2
		c0.2-19.9-12.3-88.6-1.5-105.6c9.3-14.7,66.6-10.9,94.2-9.3c0.5,20.4,4.2,40.8,20.8,48.9c29.9,14.6,88.6,1.9,120.1,1.6
		c40.2-0.4,80.3,0.5,120.5-0.9C655,287,678,278.6,677.7,239.7z M855.1,526.9c-4.9,109.5-2.2,219.2-3.4,328.8
		c-0.7,60,12.6,133.1-65,137.4c-36,2-72.5,3.8-108.6,3.9c-79.7,0.3-158.8,1.3-238.5,3.1c-44.7,1-89.5,0.8-134.2-0.1
		c-22.8-0.5-52.6,3.5-75-2c-67.4-16.5-63.1-72-63.9-126.1c-0.7-42.5-1.3-84.9-1.9-127.4c-1.2-94.9-1.9-189.9-1.3-284.8
		c0.3-52.4,1-104.8,2.5-157.2c0.8-27.7-7.8-80.5,3.5-106c18.3-41.5,130.2-33.4,189.3-31.4c-7,8.8-11.8,18.9-14.3,31.1
		c-0.8,1.5-1.4,3.3-1.4,5.5c0.1,4.2-0.1,9.2-0.3,14.4c-30.3-1.9-81.9-8-103.1,4.2c-22.1,12.7-14.3,41.5-13.6,63.8
		c2.3,72.7-2,145.5-1.3,218.2c3.5,115.7-2.4,231.4,5.9,347c2,27.1-0.7,69.5,22.1,88.1c11.1,9.1,49.4,9.2,65.3,10.5
		c30.4,2.6,61,2,91.5,0.3c61.1-3.5,122.5-6,183.6-4.8c49.7,0.9,98.7-2.3,148.4-4.3c17.7-0.7,36.7-0.3,45.8-17.5
		c11.2-21.1,2.5-69.9,2.7-92.5c1.2-136.8,0.5-273.6-0.2-410.5c-0.3-53.5,1.5-107.7-1.4-161.1c-2.8-52.1-69.9-42.1-113-41.3
		c-0.7-4.2-1.5-8.5-2.5-13.2c-3.1-14.9-9.9-25.9-18.7-35.1c20.1,0.4,40.1,0.6,60.2,0.8c20.9,0.2,41.8,0.5,62.7,0.7
		c41,0.5,60.1-4.8,72.9,37.1C879.9,303.3,859.6,427.4,855.1,526.9z"/>
	<path class="st0" d="M532.5,398.1c-36.3-2.1-68.7-5-105.3-1.2c-14.6,1.5-14.8,24.6,0,23.1c36.7-3.8,68.9-1.2,105.3,1.2
		c17.1,1.1,32.6-1.1,49.4-3c25.6-2.9,48.5,0.2,73.9,1.3c14.8,0.6,14.8-22.4,0-23.1c-18-0.8-35.9-4.1-53.9-3.5
		C578.5,393.5,556.1,399.5,532.5,398.1z"/>
	<path class="st0" d="M423.2,521.5c-14.8,0.5-14.9,23.6,0,23.1c41.1-1.4,82.1-1.8,123.3,0.4c39.8,2.1,74.2,0,113.3-2.6
		c14.7-1,14.9-24.1,0-23.1C581.1,524.5,502.5,518.9,423.2,521.5z"/>
	<path class="st0" d="M662.5,644.9c-41.4,1.8-82.8,2.8-124.3,2.2c-41.9-0.6-80.2-5.2-120.7,5.5c-14.3,3.8-8.3,26.1,6.1,22.3
		c42.5-11.2,85.8-4.8,129.4-4.5c36.5,0.3,73-0.8,109.5-2.3C677.3,667.4,677.3,644.3,662.5,644.9z"/>
	<path class="st0" d="M661.9,772.2c-81.3,10.7-161.6-14.8-241.8,0c-14.6,2.7-8.4,24.9,6.1,22.3c77.4-14.3,156.7,11.2,235.7,0.8
		C676.4,793.3,676.6,770.2,661.9,772.2z"/>
	<path class="st0" d="M379.2,400.3c-7.1-0.8-14-1-21.1-0.7c-14.8,0.7-14.9,23.8,0,23.1c7.1-0.3,14-0.1,21.1,0.7
		C393.9,425,393.8,401.9,379.2,400.3z"/>
	<path class="st0" d="M356.6,545.2c0.4-0.1,10.7-0.7,8.6-3c0-0.1,0-0.2,0-0.3c4.9,3.8,13.1,4.6,18-1.9c0-0.1,0.1-0.1,0.1-0.2
		c3.2-4.2,1.3-10.5-1.8-14c-6.7-7.7-22.6-5-31.1-2.9C336,526.5,342.2,548.8,356.6,545.2z"/>
	<path class="st0" d="M375.4,654.6c-6.9-0.1-13.8-0.1-20.7-0.2c-14.9-0.1-14.9,22.9,0,23.1c6.9,0.1,13.8,0.1,20.7,0.2
		C390.3,677.9,390.3,654.8,375.4,654.6z"/>
	<path class="st0" d="M374.2,772.8c-6.3,0.2-12.7,0.5-19,0.7c-14.8,0.6-14.9,23.7,0,23.1c6.3-0.2,12.7-0.5,19-0.7
		C389,795.3,389.1,772.2,374.2,772.8z"/>
	<path class="st0" d="M509.2,83c0.2,0,0.3,0,0.5,0c14.9,0,14.9-23.1,0-23.1c-0.2,0-0.3,0-0.5,0C494.4,60,494.4,83,509.2,83z"/>
	<path class="st0" d="M412,232.7c0.8-10.1-2.7-20.6,3.4-29.4c5.6-8.1,13.8-13.7,22.6-17.9c13.4-6.4,1.7-26.3-11.6-19.9
		c-12.5,6-23.4,14.9-31.1,26.5c-8.7,13-5.1,26.2-6.3,40.8C387.7,247.5,410.8,247.4,412,232.7z"/>
	<path class="st0" d="M460.7,172.1c14.8,0,14.9-23.1,0-23.1C445.9,149,445.9,172.1,460.7,172.1z"/>
</g>
</svg>
