<?xml version="1.0" encoding="utf-8"?>
<!-- Generator: Adobe Illustrator 17.0.0, SVG Export Plug-In . SVG Version: 6.00 Build 0)  -->
<!DOCTYPE svg PUBLIC "-//W3C//DTD SVG 1.1//EN" "http://www.w3.org/Graphics/SVG/1.1/DTD/svg11.dtd">
<svg version="1.1" id="Layer_1" xmlns="http://www.w3.org/2000/svg" xmlns:xlink="http://www.w3.org/1999/xlink" x="0px" y="0px"
	 width="1025px" height="1024px" viewBox="0 0 1025 1024" enable-background="new 0 0 1025 1024" xml:space="preserve">
<g><path d="M407.552 888.832h-273.408c-38.912 0-69.632-31.744-69.632-70.656v-247.808c0-117.76 23.552-209.92 72.704-278.528 39.936-54.272 102.4-104.448 187.392-149.504 34.816-17.408 78.848-2.048 96.256 31.744l24.576 45.056c17.408 34.816 4.096 75.776-29.696 95.232-39.936 23.552-69.632 46.080-89.088 69.632-14.336 17.408-25.6 35.84-32.768 56.32-13.312 33.792 17.408 63.488 56.32 63.488h57.344c38.912 0 70.656 31.744 70.656 70.656v243.712c0 38.912-31.744 70.656-70.656 70.656zM889.856 888.832h-273.408c-38.912 0-70.656-31.744-70.656-70.656v-247.808c0-117.76 24.576-209.92 73.728-278.528 39.936-54.272 102.4-104.448 187.392-149.504 34.816-17.408 78.848-2.048 96.256 31.744l23.552 45.056c18.432 34.816 4.096 75.776-28.672 95.232-40.96 23.552-69.632 46.080-89.088 69.632-14.336 17.408-25.6 35.84-32.768 56.32-13.312 33.792 17.408 63.488 56.32 63.488h57.344c38.912 0 70.656 31.744 70.656 70.656v243.712c0 38.912-31.744 70.656-70.656 70.656z"></path></g>
</svg>
