<?xml version="1.0" encoding="utf-8"?>
<!-- Generator: Adobe Illustrator 17.0.0, SVG Export Plug-In . SVG Version: 6.00 Build 0)  -->
<!DOCTYPE svg PUBLIC "-//W3C//DTD SVG 1.1//EN" "http://www.w3.org/Graphics/SVG/1.1/DTD/svg11.dtd">
<svg version="1.1" id="Layer_1" xmlns="http://www.w3.org/2000/svg" xmlns:xlink="http://www.w3.org/1999/xlink" x="0px" y="0px"
	 width="1025px" height="1024px" viewBox="0 0 1025 1024" enable-background="new 0 0 1025 1024" xml:space="preserve">
<g><path d="M921.6 568.32h-43.008c-19.456 0-37.888 15.36-43.008 33.792-38.912 141.312-168.96 245.76-323.584 245.76-105.472 0-199.68-48.128-261.12-124.928-12.288-14.336-9.216-38.912 5.12-51.2l87.040-79.872c14.336-13.312 10.24-23.552-9.216-23.552h-234.496c-19.456 0-34.816 15.36-34.816 34.816v209.92c0 19.456 11.264 24.576 25.6 11.264l30.72-28.672c14.336-13.312 34.816-11.264 47.104 4.096 82.944 98.304 205.824 160.768 344.064 160.768 216.064 0 397.312-154.624 438.272-358.4 4.096-18.432-9.216-33.792-28.672-33.792zM934.912 200.704l-30.72 30.72c-13.312 13.312-32.768 11.264-45.056-3.072-82.944-100.352-207.872-164.864-347.136-164.864-216.064 0-397.312 153.6-438.272 358.4-4.096 18.432 9.216 33.792 28.672 33.792h43.008c19.456 0 37.888-15.36 43.008-33.792 38.912-142.336 168.96-245.76 323.584-245.76 108.544 0 205.824 51.2 267.264 132.096 12.288 15.36 8.192 39.936-5.12 53.248l-69.632 69.632c-13.312 14.336-9.216 24.576 10.24 24.576h209.92c19.456 0 35.84-15.36 35.84-34.816v-209.92c0-19.456-11.264-23.552-25.6-10.24z"></path></g>
</svg>
