<?xml version="1.0" encoding="utf-8"?>
<!-- Generator: Adobe Illustrator 17.0.0, SVG Export Plug-In . SVG Version: 6.00 Build 0)  -->
<!DOCTYPE svg PUBLIC "-//W3C//DTD SVG 1.1//EN" "http://www.w3.org/Graphics/SVG/1.1/DTD/svg11.dtd">
<svg version="1.1" id="Layer_1" xmlns="http://www.w3.org/2000/svg" xmlns:xlink="http://www.w3.org/1999/xlink" x="0px" y="0px"
	 width="1025px" height="1024px" viewBox="0 0 1025 1024" enable-background="new 0 0 1025 1024" xml:space="preserve">
<g><path d="M804.864 430.080l-257.024 257.024c-10.24 9.216-22.528 14.336-35.84 14.336s-25.6-5.12-34.816-14.336l-257.024-257.024c-20.48-19.456-20.48-51.2 0-70.656l21.504-22.528c19.456-19.456 51.2-19.456 70.656 0l164.864 163.84c9.216 10.24 22.528 14.336 34.816 14.336s25.6-4.096 35.84-14.336l163.84-163.84c19.456-19.456 51.2-19.456 70.656 0l22.528 22.528c19.456 19.456 19.456 51.2 0 70.656z"></path></g>
</svg>
