<?xml version="1.0" encoding="utf-8"?>
<!-- Generator: Adobe Illustrator 17.0.0, SVG Export Plug-In . SVG Version: 6.00 Build 0)  -->
<!DOCTYPE svg PUBLIC "-//W3C//DTD SVG 1.1//EN" "http://www.w3.org/Graphics/SVG/1.1/DTD/svg11.dtd">
<svg version="1.1" id="Layer_1" xmlns="http://www.w3.org/2000/svg" xmlns:xlink="http://www.w3.org/1999/xlink" x="0px" y="0px"
	 width="1025px" height="1024px" viewBox="0 0 1025 1024" enable-background="new 0 0 1025 1024" xml:space="preserve">
<g><path d="M927.744 409.6c-13.312-8.192-19.456-16.384-17.408-31.744 2.048-22.528-8.192-35.84-30.72-43.008-94.208-33.792-189.44-68.608-283.648-102.4-13.312-4.096-31.744-4.096-45.056 0-78.848 27.648-157.696 56.32-236.544 84.992-25.6 10.24-51.2 16.384-78.848 15.36-18.432 0-38.912 3.072-57.344 7.168-48.128 11.264-87.040 32.768-81.92 100.352 1.024 9.216-5.12 20.48-11.264 27.648-26.624 27.648-28.672 67.584-1.024 93.184 16.384 15.36 21.504 30.72 21.504 52.224 0 41.984 13.312 65.536 54.272 78.848 31.744 9.216 65.536 10.24 98.304 16.384 7.168 2.048 16.384 5.12 18.432 10.24 10.24 25.6 29.696 43.008 55.296 50.176 37.888 10.24 77.824 17.408 115.712 25.6 38.912-7.168 75.776-12.288 111.616-21.504 25.6-7.168 47.104-22.528 61.44-46.080 5.12-9.216 14.336-18.432 23.552-21.504 73.728-27.648 147.456-54.272 221.184-80.896 53.248-18.432 53.248-18.432 52.224-75.776 0-12.288 3.072-21.504 14.336-30.72 38.912-30.72 37.888-80.896-4.096-108.544zM152.576 386.048c31.744-18.432 67.584-19.456 103.424-20.48 14.336 0 28.672-1.024 40.96-5.12 88.064-30.72 174.080-63.488 262.144-94.208 7.168-3.072 17.408-4.096 24.576-1.024 94.208 32.768 189.44 67.584 283.648 101.376 1.024 1.024 2.048 2.048 6.144 5.12-57.344 21.504-112.64 40.96-167.936 61.44-34.816 12.288-69.632 24.576-104.448 36.864-9.216 3.072-15.36 6.144-16.384 18.432-2.048 20.48-18.432 32.768-35.84 36.864-29.696 8.192-60.416 17.408-91.136 18.432-33.792 1.024-67.584-6.144-101.376-10.24-10.24-1.024-20.48-7.168-29.696-12.288-29.696-15.36-33.792-33.792-18.432-59.392-30.72 0-62.464 2.048-94.208-1.024-20.48-2.048-41.984-8.192-61.44-17.408-28.672-14.336-27.648-40.96 0-57.344zM904.192 494.592c-28.672 11.264-60.416 16.384-90.112 21.504-12.288 2.048-23.552 2.048-31.744 13.312-4.096 5.12-10.24 9.216-16.384 11.264-17.408 5.12-29.696 14.336-36.864 32.768-9.216 20.48-23.552 17.408-40.96-6.144-31.744 17.408-63.488 34.816-96.256 52.224-2.048 1.024-6.144 2.048-8.192 5.12-15.36 33.792-48.128 36.864-78.848 41.984-11.264 2.048-19.456 5.12-25.6 15.36-17.408 25.6-39.936 24.576-58.368-1.024-5.12-8.192-15.36-14.336-23.552-17.408-29.696-10.24-60.416-19.456-90.112-28.672-5.12-2.048-11.264-4.096-14.336-8.192-16.384-21.504-40.96-19.456-63.488-25.6-21.504-5.12-43.008-12.288-56.32-32.768-2.048-5.12-11.264-6.144-17.408-8.192-13.312-6.144-28.672-11.264-41.984-18.432-12.288-7.168-18.432-18.432-13.312-36.864 38.912 49.152 92.16 54.272 146.432 54.272 12.288 0 17.408 5.12 24.576 15.36 11.264 15.36 25.6 32.768 41.984 40.96 84.992 36.864 171.008 36.864 256 0 18.432-7.168 29.696-28.672 45.056-43.008 6.144-5.12 12.288-12.288 20.48-14.336 76.8-28.672 154.624-56.32 232.448-84.992 16.384-6.144 31.744-17.408 48.128-26.624 15.36 16.384 14.336 36.864-11.264 48.128z"></path></g>
</svg>
