<?xml version="1.0" encoding="utf-8"?>
<!-- Generator: Adobe Illustrator 17.0.0, SVG Export Plug-In . SVG Version: 6.00 Build 0)  -->
<!DOCTYPE svg PUBLIC "-//W3C//DTD SVG 1.1//EN" "http://www.w3.org/Graphics/SVG/1.1/DTD/svg11.dtd">
<svg version="1.1" id="Layer_1" xmlns="http://www.w3.org/2000/svg" xmlns:xlink="http://www.w3.org/1999/xlink" x="0px" y="0px"
	 width="1025px" height="1024px" viewBox="0 0 1025 1024" enable-background="new 0 0 1025 1024" xml:space="preserve">
<g><path d="M1014.784 968.704l-265.216-260.096c69.632-75.776 112.64-175.104 112.64-284.672 0-234.496-193.536-423.936-431.104-423.936-238.592 0-431.104 189.44-431.104 423.936s192.512 423.936 431.104 423.936c102.4 0 196.608-35.84 271.36-94.208l265.216 261.12c13.312 12.288 33.792 12.288 47.104 0 12.288-13.312 12.288-33.792 0-46.080zM431.104 782.336c-201.728 0-364.544-160.768-364.544-358.4s162.816-358.4 364.544-358.4c200.704 0 364.544 160.768 364.544 358.4s-163.84 358.4-364.544 358.4z"></path></g>
</svg>
