<?xml version="1.0" encoding="utf-8"?>
<!-- Generator: Adobe Illustrator 17.0.0, SVG Export Plug-In . SVG Version: 6.00 Build 0)  -->
<!DOCTYPE svg PUBLIC "-//W3C//DTD SVG 1.1//EN" "http://www.w3.org/Graphics/SVG/1.1/DTD/svg11.dtd">
<svg version="1.1" id="Layer_1" xmlns="http://www.w3.org/2000/svg" xmlns:xlink="http://www.w3.org/1999/xlink" x="0px" y="0px"
	 width="1025px" height="1024px" viewBox="0 0 1025 1024" enable-background="new 0 0 1025 1024" xml:space="preserve">
<g><path d="M996.352 860.16l-235.52-235.52c-34.816 55.296-80.896 101.376-135.168 136.192l234.496 235.52c37.888 36.864 98.304 36.864 136.192 0 36.864-37.888 36.864-98.304 0-136.192zM768 384c0-211.968-172.032-384-384-384s-384 172.032-384 384c0 211.968 172.032 384 384 384s384-172.032 384-384zM384 671.744c-158.72 0-287.744-129.024-287.744-287.744s129.024-287.744 287.744-287.744c158.72 0 287.744 129.024 287.744 287.744s-129.024 287.744-287.744 287.744zM159.744 384h64.512c0-88.064 71.68-159.744 159.744-159.744v-64.512c-123.904 0-224.256 100.352-224.256 224.256z"></path></g>
</svg>
