<?xml version="1.0" encoding="utf-8"?>
<!-- Generator: Adobe Illustrator 17.0.0, SVG Export Plug-In . SVG Version: 6.00 Build 0)  -->
<!DOCTYPE svg PUBLIC "-//W3C//DTD SVG 1.1//EN" "http://www.w3.org/Graphics/SVG/1.1/DTD/svg11.dtd">
<svg version="1.1" id="Layer_1" xmlns="http://www.w3.org/2000/svg" xmlns:xlink="http://www.w3.org/1999/xlink" x="0px" y="0px"
	 width="1025px" height="1024px" viewBox="0 0 1025 1024" enable-background="new 0 0 1025 1024" xml:space="preserve">
<g><path d="M815.104 635.904c47.104-119.808 95.232-238.592 142.336-358.4 1.024-2.048 2.048-4.096 2.048-7.168 2.048-4.096-6.144-7.168-17.408-7.168h-686.080c-11.264 0-22.528-8.192-24.576-19.456-6.144-31.744-13.312-63.488-19.456-95.232-2.048-10.24-13.312-19.456-24.576-19.456h-103.424c-11.264 0-19.456 9.216-19.456 20.48v10.24c0 11.264 8.192 19.456 19.456 19.456h62.464c10.24 0 21.504 9.216 23.552 20.48 37.888 185.344 75.776 370.688 113.664 556.032 2.048 11.264-4.096 24.576-12.288 32.768-10.24 11.264-16.384 26.624-16.384 43.008 0 34.816 28.672 63.488 64.512 63.488 34.816 0 64.512-28.672 64.512-63.488 0-8.192-1.024-15.36-4.096-22.528-4.096-10.24-1.024-17.408 10.24-17.408h318.464c11.264 0 14.336 7.168 10.24 17.408-3.072 7.168-4.096 14.336-4.096 21.504-1.024 33.792 28.672 64.512 63.488 65.536 35.84 0 64.512-28.672 65.536-63.488 0-20.48-9.216-37.888-23.552-50.176-9.216-7.168-17.408-17.408-17.408-25.6s-9.216-14.336-20.48-14.336h-428.032c-11.264 0-22.528-9.216-24.576-19.456-4.096-18.432-7.168-34.816-11.264-53.248-2.048-10.24 1.024-19.456 7.168-19.456h10.24c151.552 0 304.128 0 456.704 0 12.288 0 17.408-3.072 22.528-14.336z"></path></g>
</svg>
