<?xml version="1.0" encoding="utf-8"?>
<!-- Generator: Adobe Illustrator 17.0.0, SVG Export Plug-In . SVG Version: 6.00 Build 0)  -->
<!DOCTYPE svg PUBLIC "-//W3C//DTD SVG 1.1//EN" "http://www.w3.org/Graphics/SVG/1.1/DTD/svg11.dtd">
<svg version="1.1" id="Layer_1" xmlns="http://www.w3.org/2000/svg" xmlns:xlink="http://www.w3.org/1999/xlink" x="0px" y="0px"
	 width="1025px" height="1024px" viewBox="0 0 1025 1024" enable-background="new 0 0 1025 1024" xml:space="preserve">
<g><path d="M793.6 651.264c64.512-76.8 88.064-164.864 64.512-263.168-21.504-88.064-76.8-152.576-151.552-199.68-91.136-56.32-190.464-75.776-295.936-62.464-102.4 12.288-191.488 53.248-261.12 131.072-67.584 77.824-94.208 166.912-69.632 268.288 10.24 40.96 23.552 79.872 26.624 121.856 3.072 52.224-4.096 101.376-29.696 148.48-4.096 7.168-8.192 13.312-12.288 20.48 1.024 1.024 2.048 1.024 3.072 1.024 67.584-9.216 131.072-28.672 188.416-65.536 5.12-4.096 9.216-6.144 16.384-2.048 89.088 40.96 182.272 53.248 278.528 35.84s179.2-59.392 242.688-134.144zM955.392 888.832c-5.12-7.168-11.264-14.336-15.36-21.504-26.624-51.2-23.552-103.424-6.144-154.624 18.432-55.296 16.384-108.544-8.192-160.768-7.168-14.336-16.384-27.648-25.6-44.032-2.048 6.144-3.072 9.216-3.072 12.288-9.216 44.032-25.6 84.992-51.2 120.832-71.68 105.472-175.104 161.792-297.984 182.272-22.528 4.096-44.032 5.12-66.56 7.168 0 1.024 1.024 2.048 2.048 3.072 5.12 4.096 10.24 7.168 16.384 10.24 95.232 51.2 191.488 55.296 290.816 14.336 4.096-1.024 10.24-2.048 14.336 0 31.744 19.456 66.56 32.768 102.4 39.936 14.336 2.048 28.672 4.096 43.008 4.096 11.264 0 12.288-4.096 5.12-13.312z"></path></g>
</svg>
