<?xml version="1.0" encoding="utf-8"?>
<!-- Generator: Adobe Illustrator 17.0.0, SVG Export Plug-In . SVG Version: 6.00 Build 0)  -->
<!DOCTYPE svg PUBLIC "-//W3C//DTD SVG 1.1//EN" "http://www.w3.org/Graphics/SVG/1.1/DTD/svg11.dtd">
<svg version="1.1" id="Layer_1" xmlns="http://www.w3.org/2000/svg" xmlns:xlink="http://www.w3.org/1999/xlink" x="0px" y="0px"
	 width="1025px" height="1024px" viewBox="0 0 1025 1024" enable-background="new 0 0 1025 1024" xml:space="preserve">
<g><path d="M339.968 774.144l-133.12 61.44c-19.456 8.192-39.936 21.504-48.128 41.984 0 0-15.36 34.816-32.768 82.944h359.424l21.504-138.24-103.424-101.376-63.488 53.248zM866.304 877.568c-8.192-21.504-28.672-33.792-49.152-41.984l-132.096-61.44-64.512-53.248-102.4 101.376 20.48 138.24h359.424c-16.384-48.128-31.744-82.944-31.744-82.944zM188.416 535.552h37.888c18.432 0 32.768-14.336 32.768-32.768v-126.976c0-14.336-9.216-26.624-22.528-30.72 15.36-140.288 113.664-222.208 273.408-227.328h5.12c159.744 5.12 257.024 87.040 273.408 227.328-13.312 4.096-22.528 16.384-22.528 30.72v126.976c0 18.432 14.336 32.768 32.768 32.768h37.888c18.432 0 32.768-14.336 32.768-32.768v-126.976c0-15.36-11.264-28.672-26.624-31.744-7.168-77.824-36.864-143.36-86.016-191.488-52.224-51.2-126.976-80.896-216.064-88.064 0 0-9.216-1.024-27.648-1.024-19.456 0-28.672 1.024-28.672 1.024-89.088 7.168-163.84 36.864-216.064 88.064-49.152 48.128-78.848 113.664-86.016 191.488-15.36 3.072-26.624 16.384-26.624 31.744v126.976c0 17.408 14.336 32.768 32.768 32.768zM751.616 389.12c2.048-147.456-68.608-235.52-239.616-235.52s-240.64 88.064-239.616 235.52c3.072 212.992 104.448 338.944 239.616 338.944s237.568-125.952 239.616-338.944z"></path></g>
</svg>
