<?xml version="1.0" encoding="utf-8"?>
<!-- Generator: Adobe Illustrator 17.0.0, SVG Export Plug-In . SVG Version: 6.00 Build 0)  -->
<!DOCTYPE svg PUBLIC "-//W3C//DTD SVG 1.1//EN" "http://www.w3.org/Graphics/SVG/1.1/DTD/svg11.dtd">
<svg version="1.1" id="Layer_1" xmlns="http://www.w3.org/2000/svg" xmlns:xlink="http://www.w3.org/1999/xlink" x="0px" y="0px"
	 width="1025px" height="1024px" viewBox="0 0 1025 1024" enable-background="new 0 0 1025 1024" xml:space="preserve">
<g><path d="M329.728 629.76c-44.032 0-78.848 34.816-78.848 78.848s34.816 78.848 78.848 78.848c43.008 0 78.848-34.816 78.848-78.848s-35.84-78.848-78.848-78.848zM329.728 747.52c-22.528 0-39.936-17.408-39.936-38.912s17.408-39.936 39.936-39.936c21.504 0 38.912 18.432 38.912 39.936s-17.408 38.912-38.912 38.912zM261.12 629.76h-176.128c-7.168 0-13.312 5.12-13.312 12.288v38.912c0 7.168 6.144 12.288 13.312 12.288h141.312c4.096-25.6 16.384-47.104 34.816-63.488zM742.4 629.76c-44.032 0-78.848 34.816-78.848 78.848s34.816 78.848 78.848 78.848 78.848-34.816 78.848-78.848c-1.024-44.032-35.84-78.848-78.848-78.848zM742.4 747.52c-22.528 0-39.936-17.408-39.936-38.912s17.408-39.936 39.936-39.936 38.912 18.432 38.912 39.936c0 21.504-17.408 38.912-38.912 38.912zM947.2 629.76h-30.72v-172.032c0-20.48-6.144-39.936-17.408-57.344l-76.8-113.664c-19.456-27.648-50.176-45.056-83.968-45.056h-119.808c-14.336 0-25.6 11.264-25.6 25.6v362.496h-195.584c18.432 16.384 31.744 37.888 34.816 63.488h206.848c7.168-50.176 50.176-89.088 103.424-89.088s95.232 38.912 102.4 89.088h102.4c7.168 0 13.312-5.12 13.312-12.288v-38.912c0-7.168-6.144-12.288-13.312-12.288zM821.248 423.936h-157.696c-7.168 0-13.312-6.144-13.312-13.312v-87.040c0-7.168 6.144-13.312 13.312-13.312h96.256c4.096 0 8.192 2.048 10.24 6.144l61.44 87.040c6.144 8.192 0 20.48-10.24 20.48zM532.48 604.16h-443.392c-13.312 0-24.576-11.264-24.576-25.6v-113.664c0-14.336 11.264-25.6 24.576-25.6h443.392c14.336 0 25.6 11.264 25.6 25.6v113.664c0 14.336-11.264 25.6-25.6 25.6zM267.264 401.408h-178.176c-13.312 0-24.576-11.264-24.576-24.576v-114.688c0-14.336 11.264-25.6 24.576-25.6h177.152c14.336 0 25.6 11.264 25.6 25.6v113.664c0 14.336-11.264 25.6-24.576 25.6zM532.48 401.408h-177.152c-14.336 0-25.6-11.264-25.6-24.576v-114.688c0-14.336 12.288-25.6 25.6-25.6h177.152c14.336 0 25.6 12.288 25.6 25.6v114.688c0 13.312-11.264 24.576-25.6 24.576z"></path></g>
</svg>
