<?xml version="1.0" encoding="utf-8"?>
<!-- Generator: Adobe Illustrator 17.0.0, SVG Export Plug-In . SVG Version: 6.00 Build 0)  -->
<!DOCTYPE svg PUBLIC "-//W3C//DTD SVG 1.1//EN" "http://www.w3.org/Graphics/SVG/1.1/DTD/svg11.dtd">
<svg version="1.1" id="Layer_1" xmlns="http://www.w3.org/2000/svg" xmlns:xlink="http://www.w3.org/1999/xlink" x="0px" y="0px"
	 width="1025px" height="1024px" viewBox="0 0 1025 1024" enable-background="new 0 0 1025 1024" xml:space="preserve">
<g><path d="M512 1022.976h-365.568c-16.384 0-31.744-1.024-46.080-9.216-24.576-13.312-38.912-33.792-38.912-62.464 0-39.936 1.024-80.896 0-121.856-1.024-41.984 16.384-75.776 48.128-103.424 31.744-26.624 67.584-44.032 105.472-58.368 56.32-21.504 110.592-48.128 164.864-73.728 8.192-4.096 11.264-9.216 12.288-17.408 2.048-19.456 4.096-38.912 6.144-58.368 0-5.12-1.024-9.216-5.12-12.288-31.744-32.768-53.248-70.656-64.512-114.688-2.048-6.144-5.12-8.192-12.288-9.216-12.288-1.024-20.48-9.216-23.552-21.504-4.096-22.528-6.144-45.056-10.24-66.56-3.072-14.336 2.048-24.576 14.336-29.696 6.144-3.072 7.168-5.12 6.144-12.288-7.168-36.864-4.096-72.704 5.12-108.544 17.408-65.536 74.752-116.736 136.192-119.808 16.384 0 30.72-3.072 45.056-11.264 25.6-14.336 53.248-16.384 80.896-7.168 74.752 25.6 125.952 74.752 147.456 151.552 8.192 30.72 4.096 62.464 0 93.184 0 7.168-2.048 11.264 7.168 13.312 13.312 4.096 19.456 14.336 16.384 28.672-3.072 22.528-7.168 45.056-11.264 68.608-2.048 13.312-11.264 21.504-24.576 21.504-6.144 1.024-10.24 3.072-11.264 9.216-7.168 43.008-30.72 77.824-60.416 107.52-8.192 8.192-10.24 15.36-8.192 25.6 2.048 15.36 4.096 31.744 5.12 47.104 0 12.288 5.12 18.432 16.384 23.552 59.392 28.672 119.808 56.32 181.248 80.896 30.72 13.312 60.416 28.672 87.040 51.2 29.696 26.624 47.104 59.392 47.104 99.328 0 41.984 0 83.968-1.024 124.928 0 36.864-25.6 65.536-62.464 69.632-39.936 5.12-80.896 2.048-121.856 2.048-88.064 1.024-177.152 0-265.216 0z"></path></g>
</svg>
